<svg width="54" height="54" viewBox="0 0 54 54" fill="none" xmlns="http://www.w3.org/2000/svg">
<path fill-rule="evenodd" clip-rule="evenodd" d="M23 47H30C31.6569 47 33 45.6569 33 44V28H46.9658L44.2929 30.6729C43.9024 31.0634 43.9024 31.6966 44.2929 32.0871C44.6834 32.4776 45.3166 32.4776 45.7071 32.0871L49.4411 28.3532C50.2221 27.5721 50.2221 26.3058 49.4411 25.5247L45.7071 21.7908C45.3166 21.4002 44.6834 21.4002 44.2929 21.7908C43.9024 22.1813 43.9024 22.8145 44.2929 23.205L47.0879 26H33V10C33 8.34315 31.6569 7 30 7H23H18H16C15.4477 7 15 7.44772 15 8C15 8.55228 15.4477 9 16 9H18H23H30C30.5523 9 31 9.44772 31 10V26H16C15.4477 26 15 26.4477 15 27C15 27.5523 15.4477 28 16 28H31V44C31 44.5523 30.5523 45 30 45H23H18H16C15.4477 45 15 45.4477 15 46C15 46.5523 15.4477 47 16 47H18H23Z" fill="#0D703C"/>
<path d="M11 8C11 6.34315 9.65685 5 8 5C6.34315 5 5 6.34315 5 8C5 9.65685 6.34315 11 8 11C9.65685 11 11 9.65685 11 8Z" stroke="#0D703C" stroke-width="2"/>
<path d="M11 27C11 25.3431 9.65685 24 8 24C6.34315 24 5 25.3431 5 27C5 28.6569 6.34315 30 8 30C9.65685 30 11 28.6569 11 27Z" stroke="#0D703C" stroke-width="2"/>
<path d="M11 46C11 44.3431 9.65685 43 8 43C6.34315 43 5 44.3431 5 46C5 47.6569 6.34315 49 8 49C9.65685 49 11 47.6569 11 46Z" stroke="#0D703C" stroke-width="2"/>
</svg>
