<svg width="54" height="54" viewBox="0 0 54 54" fill="none" xmlns="http://www.w3.org/2000/svg">
<path fill-rule="evenodd" clip-rule="evenodd" d="M39.998 7.92545C35.7299 5.0973 30.6493 3.75326 25.5411 4.10094C20.7345 4.42809 16.1551 6.23594 12.4273 9.26451L13.2927 6.27822C13.4464 5.74775 13.141 5.19312 12.6105 5.03941C12.08 4.8857 11.5254 5.19112 11.3717 5.72159L10.0136 10.4086C9.78299 11.2043 10.2411 12.0362 11.0368 12.2668L15.7238 13.6249C16.2543 13.7786 16.8089 13.4732 16.9626 12.9428C17.1163 12.4123 16.8109 11.8577 16.2805 11.7039L13.6622 10.9453C17.071 8.14876 21.2717 6.47926 25.6825 6.17905C30.3343 5.86244 34.9608 7.08637 38.8475 9.66177C42.7341 12.2372 45.6646 16.0207 47.1862 20.4279C48.7078 24.8352 48.7358 29.6208 47.266 34.0455C47.0847 34.5914 47.3802 35.1809 47.926 35.3622C48.4719 35.5435 49.0614 35.248 49.2427 34.7022C50.8568 29.8432 50.826 24.5879 49.1551 19.7482C47.4842 14.9085 44.2661 10.7536 39.998 7.92545ZM8.02696 18.0923C8.27797 17.5748 8.06191 16.9518 7.54439 16.7008C7.02687 16.4498 6.40385 16.6658 6.15284 17.1833C3.65483 22.3338 3.13952 28.2233 4.70515 33.7293C6.27077 39.2352 9.80784 43.9725 14.642 47.038C19.4763 50.1035 25.2695 51.2828 30.9174 50.3511C36.1972 49.4801 41.0048 46.8213 44.5447 42.8382L44.6064 45.8447C44.6177 46.3969 45.0745 46.8353 45.6267 46.824C46.1789 46.8126 46.6173 46.3559 46.606 45.8037L46.5059 40.9249C46.4889 40.0966 45.8037 39.439 44.9755 39.456L40.0967 39.556C39.5445 39.5674 39.1061 40.0242 39.1174 40.5763C39.1287 41.1285 39.5855 41.5669 40.1377 41.5556L42.9492 41.498C39.7293 45.1009 35.3671 47.506 30.5784 48.2959C25.4352 49.1444 20.1597 48.0705 15.7575 45.2789C11.3553 42.4874 8.13436 38.1735 6.70865 33.1596C5.28294 28.1457 5.75219 22.7824 8.02696 18.0923Z" fill="#0D703C"/>
<path fill-rule="evenodd" clip-rule="evenodd" d="M26.2885 33.9147C23.2009 33.4102 20.8445 30.7303 20.8445 27.5C20.8445 24.1922 23.3153 21.4615 26.5119 21.0528C26.7247 21.0376 26.9416 21.0277 27.1629 21.0232C27.181 21.0229 27.199 21.022 27.2169 21.0207L27.281 21.0212L27.2909 21.0213L27.3008 21.0212L27.3649 21.0207C27.3828 21.022 27.4008 21.0229 27.4189 21.0232C27.7319 21.0295 28.036 21.0467 28.3321 21.0746C31.4533 21.5503 33.8445 24.2459 33.8445 27.5C33.8445 30.6279 31.6352 33.2397 28.6919 33.8602C28.2794 33.9255 27.854 33.9647 27.4137 33.976C27.3944 33.9765 27.3753 33.9776 27.3562 33.9791L27.3036 33.9786L27.2909 33.9785L27.2782 33.9786L27.2256 33.9791C27.2065 33.9776 27.1874 33.9765 27.1681 33.976C26.8682 33.9683 26.5752 33.9477 26.2885 33.9147ZM19.2011 29.9441C18.9691 29.1701 18.8445 28.3496 18.8445 27.5C18.8445 26.4611 19.0309 25.4656 19.3721 24.5454C18.6356 25.2604 17.8917 26.0827 17.1088 27.0109C16.9644 27.1821 16.963 27.435 17.109 27.6094C17.8135 28.451 18.5047 29.2346 19.2011 29.9441ZM26.31 19.0623C21.7088 19.4119 18.7779 21.93 15.58 25.7214C14.8069 26.638 14.808 27.9764 15.5754 28.8932C18.4547 32.3326 21.5272 35.3617 26.0112 35.896C26.4456 35.9645 26.8909 36 27.3445 36C27.9304 36 28.5026 35.9407 29.0551 35.8278C33.2782 35.1404 36.232 32.2072 39.0064 28.8932C39.7738 27.9764 39.7749 26.638 39.0018 25.7214C35.8762 22.0157 33.0057 19.5264 28.5813 19.0893C28.1775 19.0305 27.7646 19 27.3445 19C26.9943 19 26.6491 19.0212 26.31 19.0623ZM35.3752 24.7077C36.0577 25.3841 36.7487 26.1521 37.473 27.0109C37.6174 27.1821 37.6188 27.435 37.4728 27.6094C36.8197 28.3895 36.1781 29.1199 35.5331 29.7876C35.736 29.0597 35.8445 28.2925 35.8445 27.5C35.8445 26.5219 35.6793 25.5823 35.3752 24.7077Z" fill="#0D703C"/>
<path d="M26.9785 25.1304V26.9687C26.9785 27.3808 27.2314 27.7508 27.6153 27.9004L29.9101 28.7949" stroke="#0D703C" stroke-width="2" stroke-linecap="round" stroke-linejoin="round"/>
</svg>
