<svg width="54" height="54" viewBox="0 0 54 54" fill="none" xmlns="http://www.w3.org/2000/svg">
<path d="M35 23.9751C35 22.9902 34.806 22.0149 34.4291 21.105C34.0522 20.195 33.4997 19.3682 32.8033 18.6718C32.1069 17.9754 31.2801 17.4229 30.3701 17.046C29.4602 16.6691 28.4849 16.4751 27.5 16.4751C26.5151 16.4751 25.5398 16.6691 24.6299 17.046C23.7199 17.4229 22.8931 17.9754 22.1967 18.6718C21.5003 19.3682 20.9478 20.195 20.5709 21.105C20.194 22.0149 20 22.9902 20 23.9751H27.5H35Z" stroke="#0D703C" stroke-width="2" stroke-linecap="round" stroke-linejoin="round"/>
<path d="M35 23.9751C35 22.9902 34.806 22.0149 34.4291 21.105C34.0522 20.195 33.4997 19.3682 32.8033 18.6718C32.1069 17.9754 31.2801 17.4229 30.3701 17.046C29.4602 16.6691 28.4849 16.4751 27.5 16.4751C26.5151 16.4751 25.5398 16.6691 24.6299 17.046C23.7199 17.4229 22.8931 17.9754 22.1967 18.6718C21.5003 19.3682 20.9478 20.195 20.5709 21.105C20.194 22.0149 20 22.9902 20 23.9751H27.5H35Z" stroke="#0D703C" stroke-width="2" stroke-linecap="round" stroke-linejoin="round"/>
<path fill-rule="evenodd" clip-rule="evenodd" d="M31.5 11C31.5 13.2091 29.7091 15 27.5 15C25.2909 15 23.5 13.2091 23.5 11C23.5 8.79086 25.2909 7 27.5 7C29.7091 7 31.5 8.79086 31.5 11ZM33.1636 12.9857C32.344 15.3235 30.1178 17 27.5 17C24.8822 17 22.656 15.3235 21.8364 12.9857C18.6778 14.0689 15.8921 16.0368 13.8141 18.6604C11.6217 21.4285 10.3203 24.7962 10.0814 28.3192C10.0425 28.8931 9.54579 29.3268 8.97192 29.2879C8.39806 29.249 7.96438 28.7522 8.00329 28.1784C8.2706 24.2351 9.72735 20.4655 12.1813 17.3672C14.5815 14.3367 17.8253 12.0878 21.5008 10.9022C21.553 7.63361 24.2189 5 27.5 5C30.781 5 33.447 7.6336 33.4992 10.9022C37.2457 12.1107 40.5439 14.4242 42.957 17.5439C45.4686 20.7909 46.8939 24.7463 47.0306 28.849C47.0498 29.4239 46.5993 29.9054 46.0244 29.9246C45.4496 29.9437 44.968 29.4932 44.9488 28.9184C44.8267 25.253 43.5533 21.7192 41.3095 18.8183C39.2191 16.1158 36.3852 14.0905 33.1636 12.9857ZM42.5 37.475C41.3838 37.475 40.2785 37.6949 39.2472 38.122C38.2159 38.5492 37.2789 39.1753 36.4896 39.9646C35.7003 40.7539 35.0742 41.6909 34.647 42.7222C34.2548 43.6692 34.0373 44.6786 34.0044 45.7017C31.8082 46.5834 29.4517 47.0109 27.0778 46.9534C24.6027 46.8936 22.1719 46.308 19.9456 45.2395C19.8561 44.453 19.6571 43.6813 19.353 42.9471C18.9258 41.9158 18.2997 40.9787 17.5104 40.1895C16.7211 39.4002 15.7841 38.774 14.7528 38.3469C13.7215 37.9197 12.6162 37.6999 11.5 37.6999C10.3838 37.6999 9.27846 37.9197 8.24719 38.3469C7.21592 38.774 6.27889 39.4002 5.48959 40.1895C4.70029 40.9788 4.07419 41.9158 3.64702 42.9471C3.21986 43.9783 3 45.0836 3 46.1999C3 46.7521 3.44772 47.1999 4 47.1999H11.5H19C19.0625 47.1999 19.1236 47.1941 19.1829 47.1832C21.6369 48.3374 24.3083 48.97 27.0274 49.0358C30.1135 49.1104 33.1733 48.4529 35.9562 47.1171C36.0372 47.0782 36.1108 47.0302 36.1765 46.975H42.5H50C50.5523 46.975 51 46.5273 51 45.975C51 44.8588 50.7801 43.7534 50.353 42.7222C49.9258 41.6909 49.2997 40.7539 48.5104 39.9646C47.7211 39.1753 46.7841 38.5492 45.7528 38.122C44.7215 37.6949 43.6162 37.475 42.5 37.475ZM17.5052 43.7124C17.6898 44.1581 17.8238 44.6218 17.9054 45.095C17.8773 45.1279 17.8511 45.1629 17.8268 45.1999H11.5H5.07738C5.15671 44.6904 5.29656 44.191 5.49478 43.7124C5.82144 42.9238 6.30022 42.2072 6.90381 41.6037C7.50739 41.0001 8.22394 40.5213 9.01256 40.1946C9.80117 39.868 10.6464 39.6999 11.5 39.6999C12.3536 39.6999 13.1988 39.868 13.9874 40.1946C14.7761 40.5213 15.4926 41.0001 16.0962 41.6037C16.6998 42.2072 17.1786 42.9238 17.5052 43.7124ZM40.0126 39.9698C40.8012 39.6431 41.6464 39.475 42.5 39.475C43.3536 39.475 44.1988 39.6431 44.9874 39.9698C45.7761 40.2964 46.4926 40.7752 47.0962 41.3788C47.6998 41.9824 48.1786 42.6989 48.5052 43.4875C48.7034 43.9661 48.8433 44.4655 48.9226 44.975H42.5H36.0774C36.1567 44.4655 36.2966 43.9661 36.4948 43.4875C36.8214 42.6989 37.3002 41.9824 37.9038 41.3788C38.5074 40.7752 39.2239 40.2964 40.0126 39.9698Z" fill="#0D703C"/>
<path d="M11.5 28.2251C8.73858 28.2251 6.5 30.4637 6.5 33.2251C6.5 35.9865 8.73858 38.2251 11.5 38.2251C14.2614 38.2251 16.5 35.9865 16.5 33.2251C16.5 30.4637 14.2614 28.2251 11.5 28.2251Z" stroke="#0D703C" stroke-width="2"/>
<path d="M42.5 28C39.7386 28 37.5 30.2386 37.5 33C37.5 35.7614 39.7386 38 42.5 38C45.2614 38 47.5 35.7614 47.5 33C47.5 30.2386 45.2614 28 42.5 28Z" stroke="#0D703C" stroke-width="2"/>
</svg>
