<svg width="54" height="54" viewBox="0 0 54 54" fill="none" xmlns="http://www.w3.org/2000/svg">
<path fill-rule="evenodd" clip-rule="evenodd" d="M27.9999 11C27.9999 10.4477 27.5522 10 26.9999 10C26.4477 10 25.9999 10.4477 25.9999 11V15.9333C22.8922 16.2105 20.1526 17.7673 18.3118 20.0731L13.2148 16.8453C12.7482 16.5499 12.1305 16.6886 11.835 17.1552C11.5395 17.6218 11.6782 18.2395 12.1448 18.535L17.2091 21.7421C16.3668 23.3074 15.8888 25.0979 15.8888 27C15.8888 28.9048 16.3681 30.6977 17.2127 32.2645L12.7747 35.0753C12.3081 35.3708 12.1694 35.9886 12.4649 36.4552C12.7604 36.9218 13.3782 37.0604 13.8448 36.7649L18.3165 33.9328C20.1573 36.2354 22.8948 37.7897 25.9999 38.0667V43C25.9999 43.5523 26.4477 44 26.9999 44C27.5522 44 27.9999 43.5523 27.9999 43V38.0667C31.2514 37.7767 34.0998 36.086 35.9376 33.6023L40.5978 36.5535C41.0644 36.849 41.6822 36.7103 41.9777 36.2437C42.2731 35.7771 42.1344 35.1593 41.6678 34.8638L36.978 31.8939C37.7036 30.4174 38.1111 28.7563 38.1111 27C38.1111 25.2461 37.7047 23.5871 36.9809 22.112L42.1551 18.8351C42.6217 18.5396 42.7604 17.9218 42.4649 17.4552C42.1694 16.9886 41.5516 16.8499 41.085 17.1454L35.9415 20.403C34.1039 17.9164 31.2537 16.2235 27.9999 15.9333V11ZM26.9999 35.8889C22.0907 35.8889 18.1111 31.9092 18.1111 27C18.1111 22.0908 22.0907 18.1111 26.9999 18.1111C31.9091 18.1111 35.8888 22.0908 35.8888 27C35.8888 31.9092 31.9091 35.8889 26.9999 35.8889Z" fill="#0D703C"/>
<path d="M30 7C30 5.34315 28.6569 4 27 4C25.3431 4 24 5.34315 24 7C24 8.65685 25.3431 10 27 10C28.6569 10 30 8.65685 30 7Z" stroke="#0D703C" stroke-width="2"/>
<path d="M10 13C8.34315 13 7 14.3431 7 16C7 17.6569 8.34315 19 10 19C11.6569 19 13 17.6569 13 16C13 14.3431 11.6569 13 10 13Z" stroke="#0D703C" stroke-width="2"/>
<path d="M30 47C30 45.3431 28.6569 44 27 44C25.3431 44 24 45.3431 24 47C24 48.6569 25.3431 50 27 50C28.6569 50 30 48.6569 30 47Z" stroke="#0D703C" stroke-width="2"/>
<path d="M44 35C42.3431 35 41 36.3431 41 38C41 39.6569 42.3431 41 44 41C45.6569 41 47 39.6569 47 38C47 36.3431 45.6569 35 44 35Z" stroke="#0D703C" stroke-width="2"/>
<path d="M44 13C45.6569 13 47 14.3431 47 16C47 17.6569 45.6569 19 44 19C42.3431 19 41 17.6569 41 16C41 14.3431 42.3431 13 44 13Z" stroke="#0D703C" stroke-width="2"/>
<path d="M10 35C11.6569 35 13 36.3431 13 38C13 39.6569 11.6569 41 10 41C8.34315 41 7 39.6569 7 38C7 36.3431 8.34315 35 10 35Z" stroke="#0D703C" stroke-width="2"/>
<path d="M24 27.2571L26.2769 29.2397C26.7371 29.6404 27.4457 29.5392 27.7752 29.0256L31 24" stroke="#0D703C" stroke-width="2" stroke-linecap="round" stroke-linejoin="round"/>
</svg>
