<svg width="54" height="54" viewBox="0 0 54 54" fill="none" xmlns="http://www.w3.org/2000/svg">
<path d="M5 27C16 27 36 20 48 6.00001M48.989 10.2683L49 5.38002C48.9943 5.10393 48.6549 4.9943 48.3788 4.99996H43.5" stroke="#0D703C" stroke-width="2" stroke-linecap="round"/>
<path d="M45 22H39C37.8954 22 37 22.8954 37 24V48C37 49.1046 37.8954 50 39 50H45C46.1046 50 47 49.1046 47 48V24C47 22.8954 46.1046 22 45 22Z" stroke="#0D703C" stroke-width="2"/>
<path d="M30 30H24C22.8954 30 22 30.8954 22 32V48C22 49.1046 22.8954 50 24 50H30C31.1046 50 32 49.1046 32 48V32C32 30.8954 31.1046 30 30 30Z" stroke="#0D703C" stroke-width="2"/>
<path d="M15 36H9C7.89543 36 7 36.8954 7 38V48C7 49.1046 7.89543 50 9 50H15C16.1046 50 17 49.1046 17 48V38C17 36.8954 16.1046 36 15 36Z" stroke="#0D703C" stroke-width="2"/>
</svg>
