<svg width="883" height="846" viewBox="0 0 883 846" fill="none" xmlns="http://www.w3.org/2000/svg">
<g opacity="0.15" clip-path="url(#clip0_525_393)">
<path d="M118.451 744.834V760.187H233.413V744.834H118.451Z" fill="#E0E0E0"/>
<path d="M134.113 745.467C134.522 745.467 134.828 748.693 134.828 752.653C134.828 756.614 134.501 759.84 134.113 759.84C133.725 759.84 133.398 756.614 133.398 752.653C133.398 748.693 133.725 745.467 134.113 745.467Z" fill="#FAFAFA"/>
<path d="M131.601 745.16C132.01 745.16 132.316 748.386 132.316 752.347C132.316 756.308 131.989 759.534 131.601 759.534C131.213 759.534 130.887 756.308 130.887 752.347C130.887 748.386 131.213 745.16 131.601 745.16Z" fill="#FAFAFA"/>
<path d="M224.51 745.467C224.918 745.467 225.224 748.693 225.224 752.653C225.224 756.614 224.898 759.84 224.51 759.84C224.122 759.84 223.795 756.614 223.795 752.653C223.795 748.693 224.122 745.467 224.51 745.467Z" fill="#FAFAFA"/>
<path d="M222.019 745.16C222.428 745.16 222.734 748.386 222.734 752.347C222.734 756.308 222.407 759.534 222.019 759.534C221.631 759.534 221.305 756.308 221.305 752.347C221.305 748.386 221.631 745.16 222.019 745.16Z" fill="#FAFAFA"/>
<path d="M206.99 752.98C206.99 753.388 193.819 753.695 177.586 753.695C161.352 753.695 148.182 753.368 148.182 752.98C148.182 752.592 161.352 752.265 177.586 752.265C193.819 752.265 206.99 752.592 206.99 752.98Z" fill="#FAFAFA"/>
<path d="M117.941 813.966V844.673H232.903V813.966H117.941Z" fill="#E0E0E0"/>
<path d="M234.373 836.036C234.373 836.036 234.169 836.179 233.74 836.404C233.312 836.629 232.679 836.914 231.821 837.282C230.106 837.976 227.533 838.977 224.021 839.507C220.57 839.997 215.955 840.14 211.381 837.711C209.135 836.506 206.991 834.689 205.378 832.259C203.785 829.85 202.764 826.685 203.295 823.419C203.56 821.785 204.255 820.172 205.398 818.845C206.521 817.518 208.318 816.538 210.238 816.64C212.157 816.722 213.893 817.824 215.118 819.274C216.343 820.724 217.16 822.561 217.344 824.521C217.793 828.421 216.159 832.464 213.382 835.404C210.646 838.466 206.562 840.324 202.335 840.794C198.088 841.304 193.677 840.63 189.512 839.201C185.346 837.772 181.222 835.424 178.302 831.667C176.872 829.809 175.851 827.482 175.688 825.032C175.484 822.582 176.26 819.948 178.138 818.131C179.077 817.212 180.384 816.62 181.732 816.559C183.08 816.497 184.407 816.926 185.489 817.62C187.715 818.988 189.124 821.357 189.716 823.827C190.798 828.85 188.818 834.076 185.183 837.364C181.548 840.671 176.791 842.141 172.237 842.631C167.663 843.08 163.069 842.754 158.821 841.304C154.595 839.895 150.797 837.119 148.612 833.362C146.386 829.687 145.651 825.052 147.325 821.152C148.122 819.233 149.898 817.518 152.022 817.192C154.084 816.804 156.208 817.375 157.821 818.58C161.068 821.152 161.598 825.563 160.557 828.931C159.495 832.382 157.167 835.036 154.758 837.098C149.837 841.243 144.017 843.04 138.994 843.223C133.91 843.407 129.621 841.998 126.497 840.385C123.353 838.752 121.27 836.894 119.983 835.567C119.35 834.893 118.881 834.362 118.615 833.974C118.33 833.586 118.187 833.403 118.207 833.382C118.35 833.178 120.514 836.731 126.763 839.895C129.867 841.406 134.053 842.672 138.974 842.427C143.833 842.182 149.428 840.365 154.104 836.343C156.391 834.342 158.556 831.79 159.495 828.645C160.435 825.603 159.822 821.663 157.106 819.58C155.779 818.58 153.941 818.11 152.267 818.437C150.551 818.723 149.204 820.009 148.51 821.704C147.06 825.113 147.693 829.34 149.755 832.709C151.797 836.159 155.268 838.691 159.271 840.018C163.273 841.365 167.704 841.692 172.094 841.243C176.443 840.773 180.915 839.344 184.223 836.322C187.49 833.382 189.287 828.584 188.307 824.174C187.776 822.03 186.551 820.009 184.713 818.886C182.916 817.702 180.568 817.743 179.098 819.233C177.607 820.662 176.893 822.888 177.097 824.991C177.219 827.135 178.118 829.156 179.404 830.871C182.038 834.301 185.959 836.567 189.92 837.956C193.943 839.344 198.149 839.997 202.152 839.528C206.133 839.079 209.87 837.404 212.423 834.587C215.016 831.871 216.506 828.176 216.118 824.705C215.833 821.316 213.26 818.029 210.156 817.824C208.624 817.722 207.154 818.478 206.174 819.621C205.153 820.765 204.52 822.214 204.275 823.664C203.765 826.624 204.663 829.544 206.133 831.831C207.624 834.117 209.645 835.894 211.749 837.057C216.037 839.426 220.549 839.405 223.939 838.997C227.39 838.548 229.983 837.67 231.699 837.057C233.434 836.424 234.312 836.036 234.353 836.098L234.373 836.036Z" fill="#FAFAFA"/>
<path d="M128.213 760.616V813.904H232.904V760.616H128.213Z" fill="#EBEBEB"/>
<path d="M145.611 762.454C146.02 762.454 146.326 774.01 146.326 788.24C146.326 802.471 145.999 814.027 145.611 814.027C145.223 814.027 144.896 802.491 144.896 788.24C144.896 773.989 145.223 762.454 145.611 762.454Z" fill="#E0E0E0"/>
<path d="M153.553 761.8C153.961 761.8 154.267 773.193 154.267 787.26C154.267 801.328 153.941 812.72 153.553 812.72C153.165 812.72 152.838 801.328 152.838 787.26C152.838 773.193 153.165 761.8 153.553 761.8Z" fill="#E0E0E0"/>
<path d="M221.08 760.085C221.488 760.085 221.795 772.09 221.795 786.893C221.795 801.695 221.468 813.7 221.08 813.7C220.692 813.7 220.365 801.695 220.365 786.893C220.365 772.09 220.692 760.085 221.08 760.085Z" fill="#E0E0E0"/>
<path d="M211.75 760.8C212.158 760.8 212.465 772.499 212.465 786.913C212.465 801.328 212.138 813.026 211.75 813.026C211.362 813.026 211.035 801.328 211.035 786.913C211.035 772.499 211.362 760.8 211.75 760.8Z" fill="#E0E0E0"/>
<path d="M775.308 644.3C786.171 638.706 798.933 637.971 810.981 639.972C817.454 641.034 824.212 642.973 828.603 647.832C833.013 652.692 833.85 661.246 828.786 665.432C825.785 667.923 821.578 668.29 817.678 668.249C808.244 668.147 797.79 666.473 790.234 672.149C785.926 675.395 783.067 680.765 777.942 682.358C772.919 683.909 767.242 680.949 764.567 676.416C761.892 671.884 761.81 666.208 763.056 661.083C763.056 661.083 764.363 649.935 775.308 644.3Z" fill="#EBEBEB"/>
<path d="M750.437 596.3C757.073 605.773 769.978 602.629 775.961 596.851C781.944 591.073 784.476 582.682 786.763 574.678C792.011 556.405 797.32 537.254 793.42 518.633C792.256 513.08 790.173 507.527 786.253 503.402C782.352 499.278 776.329 496.828 770.836 498.278C764.322 499.993 760.299 506.363 757.359 512.427C748.762 530.23 744.229 549.974 744.148 569.758C744.107 578.986 745.209 588.684 750.416 596.3" fill="#EBEBEB"/>
<path d="M732.222 609.897C739.43 601.343 740.798 588.868 737.592 578.169C734.387 567.45 727.138 558.344 718.786 550.913C709.005 542.195 697.488 535.396 685.114 531.047C680.254 529.332 675.109 527.984 669.983 528.474C664.838 528.964 659.672 531.598 657.283 536.151C653.75 542.909 657.14 551.096 660.815 557.793C667.288 569.574 674.68 580.844 682.929 591.461C689.566 599.995 697.141 608.427 707.249 612.286C717.357 616.145 727.832 615.696 733.202 608.693" fill="#EBEBEB"/>
<path d="M749.987 739.28C750.11 739.28 750.314 737.749 750.579 734.972C750.886 731.828 751.274 727.908 751.723 723.212C752.274 718.271 752.989 712.391 754.357 705.98C755.725 699.59 757.869 692.668 760.626 685.624C763.485 678.642 766.956 672.292 771.019 667.208C775.062 662.104 779.738 658.408 784.149 656.285C788.539 654.121 792.48 653.222 795.216 652.835C797.973 652.549 799.505 652.345 799.505 652.222C799.505 652.1 797.973 652.079 795.135 652.161C792.337 652.345 788.233 653.059 783.598 655.162C778.942 657.224 773.98 660.981 769.733 666.187C765.465 671.373 761.871 677.866 758.972 684.971C756.174 692.117 754.051 699.12 752.744 705.653C751.437 712.166 750.845 718.128 750.457 723.11C750.089 728.092 749.946 732.134 749.865 734.931C749.803 737.729 749.844 739.28 749.946 739.28H749.987Z" fill="#E0E0E0"/>
<path d="M750.803 730.235C750.803 730.235 750.906 729.541 750.926 728.235C750.926 726.724 750.926 724.845 750.926 722.518C750.926 717.556 750.926 710.39 751.171 701.529C751.6 683.807 753.131 664.738 756.092 637.828C758.89 612.531 762.626 583.11 766.588 563.98C767.445 559.631 768.283 555.711 769.099 552.281C769.875 548.851 770.529 545.89 771.162 543.481C771.713 541.215 772.142 539.377 772.489 537.927C772.775 536.662 772.897 535.967 772.836 535.947C772.775 535.947 772.53 536.58 772.142 537.825C771.713 539.255 771.162 541.072 770.488 543.297C769.753 545.666 768.997 548.626 768.14 552.036C767.241 555.445 766.302 559.365 765.363 563.694C761.442 581.028 757.317 605.263 754.336 632.213C751.375 659.164 750.048 683.705 749.925 701.468C749.823 710.349 750.007 717.536 750.232 722.497C750.375 724.825 750.497 726.703 750.579 728.214C750.681 729.521 750.763 730.195 750.824 730.195L750.803 730.235Z" fill="#E0E0E0"/>
<path d="M750.926 682.909C751.048 682.909 751.028 680.785 750.885 676.947C750.66 673.109 750.129 667.576 749.047 660.777C747.903 653.998 746.311 645.954 743.779 637.216C742.697 633.214 740.124 623.638 733.916 609.326C725.748 589.93 714.64 574.086 704.982 564.265C702.715 561.652 700.183 559.774 698.182 557.936C697.141 557.058 696.222 556.18 695.282 555.466C694.343 554.812 693.465 554.2 692.648 553.649C689.463 551.484 687.686 550.321 687.625 550.423C687.339 550.811 694.752 555.159 704.104 565.123C713.415 575.046 724.217 590.787 732.323 610.02C736.836 620.453 740.001 629.743 742.227 637.644C744.82 646.301 746.535 654.264 747.822 660.981C749.047 667.698 749.762 673.19 750.191 676.988C750.538 680.785 750.803 682.909 750.926 682.909Z" fill="#E0E0E0"/>
<path d="M702.002 759.207L706.739 824.174H790.214L794.972 759.207H702.002Z" fill="#EBEBEB"/>
<path d="M804.915 733.584H693.936V759.187H804.915V733.584Z" fill="#EBEBEB"/>
<path d="M693.936 821.683V828.788H699.163H803.098V821.683H693.936Z" fill="#E0E0E0"/>
<path d="M704.267 840.487L699.162 827.992H799.116L793.153 840.487H704.267Z" fill="#E0E0E0"/>
<path d="M793.419 780.441C793.419 780.441 793.296 780.666 793.031 781.033C792.704 781.482 792.296 782.013 791.785 782.687C790.601 784.198 788.968 786.28 786.926 788.914L786.701 789.2L786.497 788.914C783.434 784.688 779.35 779.032 774.551 772.397H775.246C771.693 777.419 767.731 783.034 763.484 789.057L763.116 789.588L762.708 789.098C758.359 783.932 753.662 778.318 748.762 772.499H749.558C749.313 772.785 749.047 773.132 748.782 773.458C744.453 778.889 740.267 784.136 736.306 789.098L735.897 789.629L735.509 789.077C731.282 783.095 727.321 777.48 723.748 772.437L724.442 772.478C718.643 779.093 713.722 784.688 709.944 788.996L709.679 789.281L709.474 788.955C707.555 785.749 706.044 783.177 704.941 781.339C704.472 780.502 704.084 779.849 703.777 779.318C703.512 778.848 703.41 778.603 703.43 778.603C703.451 778.603 703.614 778.808 703.92 779.257C704.268 779.767 704.676 780.421 705.207 781.217C706.371 783.034 707.963 785.545 709.965 788.71L709.515 788.669C713.232 784.32 718.071 778.644 723.768 771.947L724.136 771.519L724.462 771.968C728.077 777.011 732.058 782.585 736.326 788.547H735.53C739.471 783.544 743.657 778.297 747.965 772.866C748.231 772.54 748.496 772.213 748.741 771.907L749.129 771.417L749.538 771.907C754.418 777.746 759.114 783.361 763.443 788.526H762.667C766.955 782.564 770.958 776.99 774.551 771.988L774.898 771.498L775.246 771.988C779.942 778.705 783.944 784.422 786.946 788.689H786.517C788.641 786.117 790.336 784.096 791.581 782.605C792.133 781.972 792.582 781.462 792.929 781.033C793.235 780.686 793.419 780.502 793.439 780.523L793.419 780.441Z" fill="#F5F5F5"/>
<path d="M796.135 758.778C796.135 759.064 775.225 759.289 749.415 759.289C723.605 759.289 702.695 759.064 702.695 758.778C702.695 758.493 723.605 758.268 749.415 758.268C775.225 758.268 796.135 758.493 796.135 758.778Z" fill="#F5F5F5"/>
<path d="M320.237 81.9948C320.237 81.9948 320.074 81.9539 319.768 81.8519C319.4 81.7089 318.951 81.5252 318.42 81.321C317.154 80.7902 315.439 80.0756 313.274 79.1772C308.721 77.2376 302.309 74.4813 294.407 71.0921C278.439 64.1299 256.528 54.5951 232.311 44.0395C231.576 43.7128 230.841 43.3862 230.167 43.1003H230.616C206.827 53.268 185.387 62.4353 169.786 69.1116C162.068 72.3579 155.819 74.9713 151.368 76.8497C149.265 77.7072 147.59 78.4014 146.345 78.8914C145.201 79.3406 144.589 79.5651 144.568 79.5447C144.568 79.5039 145.14 79.2181 146.263 78.6872C147.488 78.136 149.122 77.3805 151.205 76.4413C155.615 74.5017 161.823 71.7658 169.48 68.3766C185.04 61.6186 206.439 52.3492 230.187 42.0591L230.412 41.957L230.636 42.0591C231.31 42.3653 232.045 42.6716 232.781 42.9982C256.937 53.6559 278.806 63.3132 294.733 70.3366C302.574 73.8484 308.945 76.7068 313.458 78.7485C315.582 79.7285 317.276 80.5043 318.522 81.0964C319.053 81.3414 319.482 81.566 319.829 81.7293C320.115 81.8723 320.258 81.9539 320.258 81.9744L320.237 81.9948Z" fill="#E0E0E0"/>
<path d="M417.067 73.0725H18.2949V371.631H417.067V73.0725Z" fill="#E0E0E0"/>
<path d="M404.632 86.9561H32.2422V359.36H404.632V86.9561Z" fill="#FAFAFA"/>
<path d="M114.49 205.967C114.49 205.967 114.878 251.701 117.206 265.646L174.564 262.93C174.564 262.93 169.521 217.972 171.461 205.967H114.49Z" fill="#E0E0E0"/>
<path d="M142.751 212.439C142.751 212.439 142.812 212.439 142.955 212.419C143.118 212.419 143.323 212.419 143.568 212.398C144.119 212.358 144.915 212.398 145.957 212.521C146.978 212.684 148.244 212.97 149.612 213.603C150.96 214.236 152.369 215.298 153.573 216.747C154.758 218.217 155.819 220.055 156.33 222.28C156.8 224.485 156.555 226.976 155.738 229.365C155.329 230.569 154.778 231.754 154.125 232.897C153.471 234.061 152.838 235.204 152.287 236.47C151.205 238.981 150.347 241.738 149.959 244.616V244.8H149.755C147.937 244.821 146.038 244.861 144.099 244.902C142.057 244.943 140.056 244.964 138.157 245.004H137.952V244.8C137.85 241.921 136.564 239.288 135.196 236.96C134.501 235.776 133.746 234.694 133.052 233.571C132.357 232.468 131.581 231.427 131.03 230.284C129.907 227.997 129.703 225.465 130.132 223.301C130.54 221.116 131.275 219.136 132.337 217.584C133.419 216.033 134.787 214.95 136.074 214.215C137.381 213.501 138.585 213.093 139.606 212.848C140.607 212.603 141.403 212.5 141.955 212.46C142.22 212.46 142.424 212.439 142.567 212.439C142.71 212.439 142.771 212.439 142.771 212.439C142.771 212.439 142.71 212.439 142.567 212.46C142.404 212.46 142.2 212.5 141.955 212.521C141.424 212.582 140.627 212.705 139.647 212.97C138.667 213.235 137.462 213.644 136.196 214.379C134.93 215.114 133.623 216.175 132.582 217.707C131.561 219.218 130.846 221.178 130.458 223.321C130.05 225.445 130.254 227.874 131.357 230.079C131.888 231.182 132.664 232.203 133.358 233.326C134.052 234.428 134.828 235.531 135.522 236.715C136.911 239.063 138.238 241.738 138.361 244.759L138.136 244.555C140.035 244.514 142.036 244.494 144.078 244.453C146.018 244.433 147.937 244.392 149.734 244.371L149.53 244.555C149.918 241.595 150.796 238.838 151.899 236.286C152.45 235.02 153.124 233.816 153.757 232.672C154.41 231.529 154.941 230.386 155.35 229.202C156.187 226.854 156.432 224.444 155.983 222.301C155.513 220.177 154.472 218.34 153.349 216.89C152.164 215.461 150.817 214.42 149.51 213.766C148.183 213.113 146.957 212.827 145.936 212.643C144.915 212.5 144.119 212.439 143.568 212.46C143.323 212.46 143.118 212.46 142.955 212.46C142.812 212.46 142.751 212.46 142.751 212.46V212.439Z" fill="white"/>
<path d="M145.692 244.29C145.692 244.29 145.692 244.228 145.651 244.106C145.631 243.983 145.61 243.8 145.569 243.575C145.488 243.106 145.386 242.411 145.263 241.533C144.998 239.757 144.63 237.185 144.365 233.959C144.303 233.162 144.242 232.325 144.222 231.447C144.201 230.569 144.161 229.651 144.222 228.712C144.283 227.772 144.426 226.772 144.875 225.833C145.304 224.914 146.039 224.056 147.06 223.648C148.061 223.219 149.347 223.444 150.184 224.24C150.593 224.649 150.858 225.22 150.858 225.812C150.858 226.404 150.633 226.976 150.266 227.446C149.919 227.936 149.429 228.303 148.877 228.569C148.347 228.834 147.754 228.997 147.183 229.14C145.998 229.385 144.794 229.528 143.568 229.569C142.343 229.589 141.118 229.569 139.934 229.385C139.342 229.283 138.749 229.14 138.198 228.895C137.647 228.65 137.157 228.303 136.748 227.874C136.34 227.446 136.034 226.915 135.911 226.343C135.768 225.771 135.87 225.159 136.115 224.649C136.36 224.138 136.789 223.689 137.32 223.485C137.851 223.26 138.463 223.321 138.954 223.566C139.444 223.791 139.872 224.179 140.179 224.608C140.485 225.036 140.669 225.547 140.791 226.037C141.016 227.037 141.016 228.017 141.077 228.957C141.179 230.835 141.261 232.611 141.343 234.204C141.506 237.409 141.629 240.002 141.731 241.819C141.771 242.718 141.812 243.412 141.833 243.881C141.833 244.106 141.833 244.29 141.833 244.412C141.833 244.29 141.812 244.106 141.792 243.881C141.771 243.391 141.71 242.697 141.669 241.819C141.567 240.023 141.424 237.43 141.22 234.224C141.138 232.611 141.036 230.855 140.934 228.977C140.873 228.038 140.873 227.058 140.648 226.078C140.526 225.588 140.342 225.118 140.056 224.71C139.77 224.301 139.362 223.954 138.892 223.73C138.423 223.505 137.871 223.464 137.381 223.669C136.891 223.852 136.503 224.261 136.279 224.751C136.054 225.241 135.972 225.792 136.095 226.343C136.217 226.874 136.503 227.384 136.891 227.793C137.667 228.63 138.811 229.079 139.954 229.263C141.118 229.447 142.343 229.467 143.568 229.426C144.794 229.385 145.998 229.263 147.162 229.018C147.734 228.895 148.306 228.732 148.816 228.467C149.327 228.222 149.796 227.854 150.143 227.405C150.491 226.956 150.695 226.404 150.695 225.874C150.695 225.322 150.45 224.812 150.082 224.424C149.306 223.669 148.101 223.444 147.142 223.852C146.182 224.24 145.467 225.077 145.039 225.955C144.61 226.854 144.446 227.834 144.406 228.773C144.344 229.712 144.406 230.631 144.406 231.509C144.426 232.387 144.487 233.224 144.548 234.02C144.794 237.225 145.161 239.798 145.386 241.595C145.508 242.473 145.61 243.167 145.672 243.657C145.692 243.881 145.733 244.065 145.733 244.188C145.733 244.31 145.733 244.371 145.733 244.371L145.692 244.29Z" fill="white"/>
<path d="M138.136 244.596C138.136 244.596 138.217 245.311 138.279 246.495C138.34 247.883 138.442 249.537 138.544 251.456L138.503 251.334C139.647 252.661 140.954 254.172 142.362 255.785L142.158 255.703C143.567 255.621 145.058 255.54 146.63 255.458L146.446 255.56C147.161 254.682 147.917 253.784 148.672 252.844C149.04 252.395 149.428 251.926 149.795 251.497L149.734 251.681C149.673 249.067 149.611 246.597 149.571 244.331L149.816 244.555C146.569 244.596 143.751 244.616 141.484 244.657C140.586 244.657 139.79 244.657 139.075 244.657C138.503 244.657 138.197 244.657 138.176 244.616C138.176 244.616 138.442 244.576 138.973 244.535C139.667 244.494 140.443 244.453 141.321 244.412C143.628 244.331 146.508 244.208 149.816 244.086H150.061V244.31C150.122 246.576 150.204 249.047 150.285 251.66V251.762L150.224 251.844C149.856 252.293 149.489 252.742 149.101 253.212C148.345 254.131 147.59 255.05 146.875 255.927L146.794 256.009H146.671C145.119 256.091 143.608 256.172 142.199 256.234H142.077L141.995 256.152C140.606 254.519 139.34 252.987 138.197 251.64L138.156 251.579V251.517C138.156 249.537 138.115 247.842 138.115 246.413C138.115 245.229 138.115 244.596 138.156 244.616L138.136 244.596Z" fill="white"/>
<path d="M149.674 251.048C149.674 251.048 149.51 250.987 149.245 250.864C148.979 250.742 148.591 250.578 148.081 250.415C147.101 250.068 145.651 249.741 144.058 249.802C142.445 249.843 141.036 250.252 140.076 250.66C139.586 250.864 139.198 251.048 138.953 251.191C138.688 251.334 138.545 251.415 138.545 251.395C138.545 251.395 138.667 251.293 138.912 251.129C139.158 250.966 139.545 250.762 140.036 250.537C140.995 250.109 142.445 249.659 144.058 249.619C145.692 249.578 147.142 249.904 148.142 250.292C148.632 250.476 149.02 250.66 149.286 250.803C149.551 250.946 149.674 251.027 149.674 251.048Z" fill="white"/>
<path d="M149.652 249.271C149.652 249.271 149.489 249.21 149.223 249.088C148.958 248.965 148.57 248.802 148.059 248.639C147.079 248.291 145.629 247.985 144.037 248.026C142.424 248.067 141.015 248.475 140.055 248.884C139.565 249.088 139.177 249.271 138.932 249.414C138.666 249.557 138.523 249.639 138.523 249.619C138.523 249.619 138.646 249.516 138.891 249.353C139.136 249.19 139.524 248.986 140.014 248.761C140.974 248.332 142.424 247.883 144.037 247.842C145.67 247.801 147.12 248.128 148.121 248.516C148.611 248.7 148.999 248.884 149.264 249.026C149.53 249.169 149.652 249.251 149.652 249.271Z" fill="white"/>
<path d="M149.55 247.577C149.55 247.577 149.387 247.516 149.122 247.393C148.856 247.271 148.468 247.107 147.958 246.944C146.978 246.597 145.528 246.27 143.935 246.331C142.322 246.372 140.913 246.781 139.953 247.189C139.463 247.393 139.096 247.577 138.83 247.72C138.565 247.863 138.422 247.944 138.422 247.924C138.422 247.924 138.544 247.822 138.789 247.659C139.034 247.495 139.422 247.291 139.912 247.066C140.872 246.638 142.322 246.189 143.935 246.148C145.569 246.107 147.018 246.434 148.019 246.821C148.509 247.005 148.897 247.189 149.163 247.332C149.428 247.475 149.55 247.556 149.55 247.577Z" fill="white"/>
<path d="M50.6191 131.22C50.6191 131.22 51.0071 176.954 53.3349 190.899L110.693 188.184C110.693 188.184 105.65 143.225 107.59 131.22H50.6191Z" fill="#EBEBEB"/>
<path d="M98.9517 150.433C98.9517 150.739 90.3755 151.515 79.7369 152.148C69.0984 152.781 60.4814 153.046 60.4609 152.74C60.4609 152.434 69.0371 151.658 79.6757 151.025C90.2938 150.392 98.9313 150.126 98.9517 150.433Z" fill="white"/>
<path d="M98.9517 160.11C98.9517 160.417 90.3755 161.192 79.7369 161.825C69.0984 162.458 60.4814 162.724 60.4609 162.417C60.4609 162.111 69.0371 161.335 79.6757 160.702C90.2938 160.069 98.9313 159.804 98.9517 160.11Z" fill="white"/>
<path d="M89.2118 169.625C89.2118 169.931 84.3315 170.482 78.2874 170.85C72.2228 171.217 67.3017 171.258 67.2812 170.952C67.2812 170.646 72.1615 170.094 78.2057 169.727C84.2703 169.359 89.1914 169.318 89.2118 169.625Z" fill="white"/>
<path d="M47.9023 265.748C47.9023 265.748 48.2903 311.482 50.6181 325.427L107.976 322.712C107.976 322.712 102.933 277.753 104.873 265.748H47.9023Z" fill="#EBEBEB"/>
<path d="M96.2349 284.96C96.2349 285.267 87.6587 286.043 77.0201 286.675C66.3816 287.308 57.7646 287.574 57.7441 287.268C57.7441 286.961 66.3203 286.185 76.9589 285.553C87.577 284.92 96.2145 284.654 96.2349 284.96Z" fill="white"/>
<path d="M96.2349 294.638C96.2349 294.944 87.6587 295.72 77.0201 296.353C66.3816 296.986 57.7646 297.251 57.7441 296.945C57.7441 296.639 66.3203 295.863 76.9589 295.23C87.577 294.597 96.2145 294.332 96.2349 294.638Z" fill="white"/>
<path d="M86.495 304.152C86.495 304.459 81.6147 305.01 75.5706 305.377C69.506 305.745 64.5849 305.786 64.5645 305.48C64.5645 305.173 69.4447 304.622 75.4889 304.255C81.5535 303.887 86.4746 303.846 86.495 304.152Z" fill="white"/>
<path d="M204.664 143.328L210.341 275.222L375.003 277.222L367.612 145.083L204.664 143.328Z" fill="#EBEBEB"/>
<path d="M366.325 142.388H202.744V265.891H366.325V142.388Z" fill="#F5F5F5"/>
<path d="M366.325 265.891C366.325 265.891 366.284 265.095 366.284 263.604C366.284 262.073 366.264 259.868 366.223 257.01C366.203 251.211 366.162 242.779 366.101 232.019C366.039 210.479 365.958 179.67 365.856 142.388L366.325 142.858C320.075 142.878 263.636 142.919 202.765 142.96L203.337 142.388C203.337 186.795 203.296 228.854 203.276 265.891L202.765 265.381C251.159 265.483 291.998 265.564 320.749 265.626C335.124 265.687 346.498 265.728 354.298 265.768C358.178 265.789 361.159 265.809 363.221 265.83C364.222 265.83 364.978 265.85 365.529 265.85C366.06 265.85 366.325 265.871 366.325 265.871C366.325 265.871 366.08 265.871 365.59 265.891C365.059 265.891 364.304 265.891 363.344 265.911C361.302 265.911 358.362 265.952 354.523 265.973C346.743 266.013 335.41 266.054 321.076 266.116C292.223 266.177 251.282 266.258 202.765 266.361H202.255V265.85C202.255 228.814 202.214 186.775 202.193 142.348V141.776H202.765C263.636 141.817 320.075 141.858 366.325 141.878H366.795V142.348C366.693 179.752 366.611 210.663 366.55 232.264C366.509 242.983 366.468 251.374 366.427 257.152C366.407 259.97 366.386 262.155 366.366 263.645C366.366 265.115 366.325 265.83 366.325 265.83V265.891Z" fill="#E0E0E0"/>
<path d="M288.792 168.563H222.49V252.007H288.792V168.563Z" fill="#F5F5F5"/>
<path d="M288.792 252.007C288.792 252.007 288.792 251.864 288.772 251.579C288.772 251.272 288.772 250.884 288.752 250.394C288.752 249.292 288.711 247.781 288.69 245.841C288.65 241.819 288.609 236.021 288.547 228.732C288.486 214.052 288.404 193.268 288.302 168.583L288.813 169.094C269.047 169.094 246.442 169.135 222.511 169.155C222.368 169.278 223.573 168.093 223.062 168.604V171.462V174.341C223.062 176.26 223.062 178.159 223.062 180.058C223.062 183.855 223.062 187.592 223.062 191.308C223.062 198.719 223.062 205.947 223.062 212.95C223.042 226.956 223.021 240.104 223.001 252.028L222.531 251.558C242.42 251.66 258.939 251.742 270.537 251.803C276.296 251.864 280.829 251.905 284.014 251.926C285.525 251.946 286.71 251.967 287.588 251.987C288.404 251.987 288.854 252.048 288.854 252.048C288.854 252.048 288.486 252.089 287.69 252.109C286.832 252.109 285.689 252.15 284.198 252.171C281.053 252.191 276.541 252.232 270.823 252.293C259.143 252.354 242.542 252.436 222.511 252.538H222.041V252.069C222.021 240.145 222 227.017 221.98 212.99C221.98 205.987 221.98 198.739 221.98 191.348C221.98 187.653 221.98 183.896 221.98 180.099C221.98 178.2 221.98 176.301 221.98 174.382V171.503V170.053V168.645C221.469 169.114 222.654 167.91 222.552 168.053C246.483 168.073 269.088 168.093 288.854 168.114H289.364V168.624C289.262 193.431 289.18 214.338 289.119 229.099C289.058 236.348 289.017 242.105 288.976 246.107C288.956 248.006 288.935 249.496 288.915 250.578C288.915 251.048 288.895 251.415 288.895 251.701C288.895 251.946 288.895 252.069 288.874 252.069L288.792 252.007Z" fill="#E0E0E0"/>
<path d="M352.094 149.453H225.023V161.478H352.094V149.453Z" fill="#F5F5F5"/>
<path d="M352.093 161.478C352.093 161.478 352.073 161.192 352.053 160.662C352.053 160.069 352.012 159.314 351.991 158.334C351.971 156.252 351.91 153.271 351.869 149.473L352.093 149.698C330.653 149.902 281.809 150.024 225.023 150.024C226.146 148.901 225.329 149.718 225.595 149.473V152.536C225.595 153.556 225.595 154.577 225.595 155.578C225.595 157.599 225.595 159.559 225.595 161.478L225.043 160.927C260.573 161.029 292.244 161.111 315.114 161.172C326.508 161.233 335.717 161.295 342.149 161.335C345.294 161.376 347.744 161.397 349.5 161.417C350.296 161.417 350.929 161.437 351.42 161.458C351.848 161.458 352.093 161.478 352.093 161.499C352.093 161.499 351.91 161.519 351.481 161.54C351.011 161.54 350.399 161.56 349.623 161.58C347.907 161.58 345.477 161.621 342.394 161.662C336.003 161.703 326.834 161.764 315.481 161.825C292.509 161.887 260.696 161.968 225.002 162.07H224.451V161.519C224.451 159.6 224.451 157.619 224.451 155.619C224.451 154.618 224.451 153.597 224.451 152.576V151.045V150.269V149.555V149.514C224.696 149.269 223.879 150.065 225.023 148.942C281.809 148.942 330.673 149.085 352.093 149.269H352.318V149.493C352.257 153.352 352.216 156.374 352.195 158.497C352.175 159.457 352.155 160.212 352.134 160.784C352.134 161.295 352.114 161.54 352.093 161.519V161.478Z" fill="#E0E0E0"/>
<path d="M352.114 168.563H296.92V218.85H352.114V168.563Z" fill="#F5F5F5"/>
<path d="M352.092 218.85C352.092 218.85 352.052 218.503 352.031 217.87C352.031 217.176 351.99 216.278 351.97 215.134C351.95 212.684 351.888 209.234 351.847 204.885C351.786 196.044 351.704 183.549 351.602 168.543L352.072 169.012C336.124 169.033 317.175 169.073 296.878 169.094C296.756 169.216 297.94 168.032 297.429 168.543V171.952C297.429 173.096 297.429 174.219 297.429 175.341C297.429 177.587 297.429 179.833 297.429 182.038C297.429 186.469 297.429 190.797 297.429 195.003C297.429 203.435 297.389 211.439 297.389 218.809L296.899 218.319C313.275 218.421 326.976 218.503 336.717 218.564C341.495 218.626 345.313 218.666 348.009 218.687C349.254 218.707 350.255 218.728 351.031 218.748C351.725 218.748 352.092 218.789 352.113 218.809C352.113 218.809 351.807 218.85 351.153 218.871C350.418 218.871 349.458 218.911 348.233 218.932C345.558 218.973 341.801 219.013 337.043 219.054C327.242 219.116 313.418 219.197 296.919 219.299H296.429V218.809C296.429 211.439 296.388 203.435 296.388 195.003C296.388 190.777 296.388 186.448 296.388 182.038C296.388 179.833 296.388 177.587 296.388 175.341C296.388 174.219 296.388 173.075 296.388 171.952V170.237V169.38V168.583V168.543C295.878 169.033 297.062 167.848 296.96 167.971C317.257 168.012 336.206 168.032 352.154 168.053H352.644V168.522C352.542 183.651 352.46 196.248 352.399 205.171C352.337 209.479 352.297 212.888 352.276 215.318C352.256 216.421 352.235 217.278 352.215 217.952C352.215 218.544 352.174 218.83 352.154 218.83L352.092 218.85Z" fill="#E0E0E0"/>
<path d="M352.114 226.731H296.92V252.007H352.114V226.731Z" fill="#F5F5F5"/>
<path d="M352.093 252.007C352.093 252.007 352.032 251.354 352.011 250.17C351.991 248.904 351.95 247.209 351.909 245.086C351.848 240.635 351.787 234.387 351.685 226.731L352.093 227.139C337.697 227.18 318.278 227.242 296.899 227.303C296.389 227.813 297.573 226.609 297.451 226.752V228.405V230.059C297.451 231.162 297.451 232.244 297.451 233.346C297.451 235.51 297.451 237.675 297.451 239.778C297.451 244.004 297.451 248.108 297.43 252.028L296.899 251.497C312.826 251.599 326.507 251.681 336.37 251.742C341.189 251.803 345.069 251.844 347.866 251.885C349.132 251.905 350.174 251.926 350.97 251.946C351.685 251.967 352.073 251.987 352.093 252.007C352.114 252.028 351.766 252.048 351.113 252.069C350.337 252.069 349.336 252.109 348.111 252.13C345.334 252.171 341.495 252.212 336.738 252.273C326.793 252.334 312.969 252.416 296.92 252.518H296.389V251.987C296.389 248.067 296.389 243.963 296.368 239.737C296.368 237.613 296.368 235.47 296.368 233.305C296.368 232.223 296.368 231.121 296.368 230.018V228.364V227.527V226.752V226.711C296.246 226.833 297.43 225.629 296.94 226.139C318.319 226.2 337.738 226.262 352.134 226.302H352.542V226.711C352.461 234.469 352.379 240.798 352.318 245.331C352.277 247.414 352.236 249.067 352.216 250.313C352.195 251.436 352.154 252.007 352.134 251.987L352.093 252.007Z" fill="#E0E0E0"/>
<path d="M287.159 168.706C266.637 197.065 243.012 223.648 222.49 252.007L287.159 168.706Z" fill="white"/>
<path d="M222.49 252.007C222.49 252.007 222.654 251.66 223.042 251.068C223.511 250.374 224.083 249.537 224.777 248.536C226.288 246.331 228.555 243.208 231.414 239.39C237.111 231.733 245.258 221.361 254.385 210.01C263.513 198.658 271.762 188.388 277.623 180.854C280.461 177.179 282.809 174.178 284.545 171.932C285.301 170.972 285.934 170.176 286.444 169.523C286.893 168.971 287.138 168.706 287.179 168.726C287.22 168.747 287.016 169.073 286.628 169.665C286.158 170.36 285.586 171.197 284.892 172.197C283.381 174.402 281.115 177.526 278.256 181.344C272.559 189 264.411 199.372 255.264 210.724C246.136 222.056 237.887 232.346 232.047 239.88C229.208 243.555 226.86 246.556 225.124 248.802C224.369 249.762 223.736 250.558 223.225 251.211C222.776 251.762 222.531 252.028 222.49 252.007Z" fill="#E0E0E0"/>
<path d="M288.791 251.987C288.546 252.171 273.497 233.652 255.201 210.622C236.885 187.571 222.244 168.747 222.489 168.543C222.734 168.359 237.763 186.877 256.079 209.907C274.396 232.938 289.036 251.783 288.791 251.967V251.987Z" fill="#E0E0E0"/>
<path d="M210.34 168.726C210.34 174.464 205.705 179.098 199.967 179.098C194.229 179.098 189.594 174.464 189.594 168.726C189.594 162.989 194.229 158.354 199.967 158.354C205.705 158.354 210.34 162.989 210.34 168.726Z" fill="#E0E0E0"/>
<path d="M380.006 143.552C380.006 149.289 375.371 153.924 369.633 153.924C363.895 153.924 359.26 149.289 359.26 143.552C359.26 137.815 363.895 133.18 369.633 133.18C375.371 133.18 380.006 137.815 380.006 143.552Z" fill="#E0E0E0"/>
<path d="M785.782 215.808H666.246V389.067H785.782V215.808Z" fill="#E0E0E0"/>
<path d="M779.799 215.808H660.264V389.067H779.799V215.808Z" fill="#F5F5F5"/>
<path d="M764.953 234.571H675.107V370.304H764.953V234.571Z" fill="white"/>
<path d="M764.954 370.283C764.954 370.283 764.954 370.059 764.954 369.609C764.954 369.16 764.954 368.527 764.954 367.69C764.954 365.975 764.954 363.484 764.913 360.238C764.913 353.725 764.872 344.252 764.831 332.287C764.791 308.358 764.75 274.466 764.688 234.551L764.995 234.857C737.551 234.857 707.126 234.857 675.169 234.877L675.496 234.551C675.476 285.757 675.455 332.961 675.435 370.283L675.169 370.018C702.531 370.079 724.952 370.12 740.553 370.161C748.353 370.181 754.458 370.202 758.624 370.222C760.686 370.222 762.279 370.242 763.361 370.242C764.443 370.242 764.995 370.263 764.995 370.263C764.995 370.263 764.464 370.263 763.402 370.283C762.32 370.283 760.747 370.283 758.706 370.304C754.56 370.304 748.475 370.344 740.695 370.365C725.054 370.406 702.572 370.447 675.149 370.508H674.884V370.242C674.884 332.92 674.843 285.716 674.822 234.51V234.183H675.149C707.105 234.183 737.531 234.183 764.974 234.204H765.281V234.51C765.219 274.507 765.178 308.46 765.138 332.43C765.097 344.374 765.076 353.827 765.056 360.32C765.056 363.525 765.036 366.016 765.015 367.711C765.015 368.527 765.015 369.16 765.015 369.609C765.015 370.038 765.015 370.242 765.015 370.242L764.954 370.283Z" fill="#E0E0E0"/>
<path d="M780.125 215.808C780.125 215.808 779.39 217.053 778.001 218.911C776.613 220.769 774.632 223.301 772.386 226.016C770.14 228.752 768.037 231.162 766.485 232.877C764.933 234.592 763.912 235.613 763.851 235.551C763.789 235.49 764.667 234.367 766.138 232.57C767.73 230.631 769.711 228.242 771.896 225.588C774.081 222.934 776.041 220.545 777.654 218.605C779.124 216.829 780.064 215.747 780.145 215.788L780.125 215.808Z" fill="#E0E0E0"/>
<path d="M765.402 369.854C769.874 376.939 775.122 383.534 781.064 389.455L765.402 369.854Z" fill="white"/>
<path d="M781.065 389.434C781.065 389.434 779.942 388.577 778.329 386.944C776.716 385.331 774.592 383.003 772.427 380.288C770.263 377.572 768.446 374.979 767.221 373.06C765.995 371.141 765.321 369.895 765.403 369.854C765.485 369.814 766.281 370.957 767.608 372.815C768.936 374.673 770.773 377.184 772.938 379.9C775.102 382.595 777.165 384.963 778.676 386.658C780.187 388.352 781.147 389.394 781.065 389.455V389.434Z" fill="#E0E0E0"/>
<path d="M660.242 388.924C665.47 382.493 670.677 376.041 675.904 369.61L660.242 388.924Z" fill="white"/>
<path d="M675.904 369.589C676.047 369.712 672.658 374.122 668.329 379.45C664 384.779 660.386 389.026 660.243 388.904C660.1 388.781 663.489 384.371 667.818 379.042C672.147 373.713 675.761 369.467 675.904 369.589Z" fill="#E0E0E0"/>
<path d="M660.262 215.808C660.405 215.706 663.815 219.769 667.859 224.893C671.922 230.018 675.087 234.265 674.944 234.387C674.801 234.489 671.391 230.426 667.348 225.302C663.285 220.177 660.12 215.93 660.262 215.808Z" fill="#E0E0E0"/>
<path d="M736.959 262.114H706.881V347.518H736.959V262.114Z" fill="#E0E0E0"/>
<path d="M758.232 31.7078L741.121 31.8004L741.582 116.938L758.693 116.846L758.232 31.7078Z" fill="#E0E0E0"/>
<path d="M637.189 31.9345L592.879 32.1742L593.133 79.1735L637.443 78.9338L637.189 31.9345Z" fill="#EBEBEB"/>
<path d="M681.273 31.696L636.963 31.9357L637.217 78.935L681.527 78.6953L681.273 31.696Z" fill="#F5F5F5"/>
<path d="M592.94 45.1829C622.384 45.4279 651.911 45.2645 681.356 44.7745C681.968 44.7745 681.948 43.8353 681.356 43.8353C651.911 43.672 622.384 43.8353 592.94 44.3662C592.429 44.3662 592.429 45.1625 592.94 45.1829Z" fill="#E0E0E0"/>
<path d="M645.751 78.1526L565.238 78.5882L565.446 116.89L645.958 116.454L645.751 78.1526Z" fill="#EBEBEB"/>
<path d="M725.894 77.719L645.381 78.1546L645.588 116.456L726.101 116.021L725.894 77.719Z" fill="#F5F5F5"/>
<path d="M565.291 89.2632C618.77 89.8757 672.453 89.3245 725.931 88.467C726.544 88.467 726.523 87.5278 725.931 87.5278C672.453 87.2419 618.77 87.2828 565.291 88.4465C564.781 88.4465 564.781 89.2428 565.291 89.2632Z" fill="#E0E0E0"/>
<path d="M847.121 116.928H535.193V130.649H847.121V116.928Z" fill="#E0E0E0"/>
<path d="M598.922 123.523H586.262V170.339H598.922V123.523Z" fill="#E0E0E0"/>
<path d="M787.945 123.523H775.285V170.339H787.945V123.523Z" fill="#E0E0E0"/>
<path d="M774.928 -0.0493273L757.816 0.0432434L758.45 117.133L775.561 117.041L774.928 -0.0493273Z" fill="#EBEBEB"/>
<path d="M801.652 21.7544L775.066 21.8982L775.58 116.795L802.166 116.651L801.652 21.7544Z" fill="#F5F5F5"/>
<path d="M801.485 40.0786C801.485 40.3236 795.522 40.5482 788.192 40.5482C780.861 40.5482 774.898 40.344 774.898 40.0786C774.898 39.8132 780.841 39.609 788.192 39.609C795.543 39.609 801.485 39.8132 801.485 40.0786Z" fill="#E0E0E0"/>
<path d="M801.485 36.0973C801.485 36.3423 795.522 36.5669 788.192 36.5669C780.861 36.5669 774.898 36.3627 774.898 36.0973C774.898 35.8319 780.841 35.6277 788.192 35.6277C795.543 35.6277 801.485 35.8319 801.485 36.0973Z" fill="#E0E0E0"/>
<path d="M801.485 102.412C801.485 102.657 795.522 102.881 788.192 102.881C780.861 102.881 774.898 102.677 774.898 102.412C774.898 102.146 780.841 101.942 788.192 101.942C795.543 101.942 801.485 102.146 801.485 102.412Z" fill="#E0E0E0"/>
<path d="M801.485 98.4305C801.485 98.6755 795.522 98.9001 788.192 98.9001C780.861 98.9001 774.898 98.6959 774.898 98.4305C774.898 98.165 780.841 97.9609 788.192 97.9609C795.543 97.9609 801.485 98.165 801.485 98.4305Z" fill="#E0E0E0"/>
<path d="M788.62 89.7328C788.375 89.7328 788.15 80.1572 788.15 68.3562C788.15 56.5551 788.355 46.9796 788.62 46.9796C788.885 46.9796 789.09 56.5551 789.09 68.3562C789.09 80.1572 788.885 89.7328 788.62 89.7328Z" fill="#E0E0E0"/>
<path d="M830.704 45.1012H801.77V116.724H830.704V45.1012Z" fill="#EBEBEB"/>
<path d="M817.063 98.1446C813.265 98.1446 810.59 95.4292 810.59 91.6928C810.59 89.6716 811.366 87.9157 812.938 86.854L813.592 87.7524C812.305 88.6711 811.693 90.1003 811.693 91.6724C811.693 94.6737 813.837 96.8788 817.063 96.8788C820.289 96.8788 822.433 94.6737 822.433 91.6724C822.433 90.0799 821.821 88.6711 820.534 87.7524L821.188 86.854C822.719 87.8953 823.536 89.6716 823.536 91.6928C823.536 95.4292 820.861 98.1446 817.063 98.1446Z" fill="#FAFAFA"/>
<path d="M821.883 85.0982L820.903 84.5265C821.74 83.5465 822.434 81.811 822.434 79.9327C822.434 77.2376 821.474 76.1759 820.045 76.1759C816.329 76.1759 819.065 84.6286 814.062 84.6286C812.143 84.6286 810.57 83.0156 810.57 79.7897C810.57 78.1768 811.06 76.4209 811.816 75.4205L812.796 75.9922C812.02 77.0743 811.653 78.4626 811.653 79.8306C811.653 82.3214 812.674 83.424 814.042 83.424C817.881 83.424 815.165 74.9713 820.025 74.9713C822.107 74.9713 823.516 76.7476 823.516 79.9939C823.516 82.0969 822.802 84.0977 821.883 85.0982Z" fill="#FAFAFA"/>
<path d="M821.883 73.44L820.903 72.8888C821.74 71.9087 822.434 70.1733 822.434 68.2949C822.434 65.6203 821.474 64.5382 820.045 64.5382C816.329 64.5382 819.065 72.9908 814.062 72.9908C812.143 72.9908 810.57 71.3779 810.57 68.152C810.57 66.5391 811.06 64.7832 811.816 63.7828L812.796 64.334C812.02 65.4161 811.653 66.8045 811.653 68.1724C811.653 70.6633 812.674 71.7658 814.042 71.7658C817.881 71.7658 815.165 63.3132 820.025 63.3132C822.107 63.3132 823.516 65.0895 823.516 68.3358C823.516 70.4387 822.802 72.4396 821.883 73.44Z" fill="#FAFAFA"/>
<path d="M766.116 24.9088C768.834 24.9088 771.038 22.7058 771.038 19.9883C771.038 17.2707 768.834 15.0677 766.116 15.0677C763.399 15.0677 761.195 17.2707 761.195 19.9883C761.195 22.7058 763.399 24.9088 766.116 24.9088Z" fill="#E0E0E0"/>
<path d="M767.628 33.5247H764.586V103.188H767.628V33.5247Z" fill="#E0E0E0"/>
<path d="M883 843.917C883 844.203 685.768 844.448 442.531 844.448C199.294 844.448 2.02148 844.203 2.02148 843.917C2.02148 843.632 199.213 843.387 442.531 843.387C685.85 843.387 883 843.632 883 843.917Z" fill="#263238"/>
<path d="M240.541 142C207.768 193.533 209.912 264.993 245.728 314.463C269.598 347.457 305.393 369.548 333.817 398.704C362.241 427.839 383.845 470.796 368.837 508.649C353.563 547.176 308.824 562.857 275.316 587.255C238.826 613.838 213.199 654.897 205.338 699.344C197.476 743.792 207.502 791.16 232.68 828.625H580.669C580.669 828.625 641.805 712.146 563.21 623.373C484.615 534.6 442.408 533.15 445.308 474.941C448.228 416.732 488.965 397.805 512.263 375.98C535.542 354.154 649.074 303.213 582.118 142H240.541Z" fill="#FAFAFA"/>
<path d="M240.541 142C240.541 142 242.563 141.96 246.524 141.96C250.506 141.96 256.407 141.939 264.167 141.919C279.706 141.898 302.596 141.858 332.082 141.817C391.115 141.776 476.529 141.715 582.139 141.633H582.404L582.486 141.858C587.244 153.924 592.042 166.358 595.452 179.527C598.965 192.635 601.823 206.314 602.844 220.463C603.906 234.592 603.457 249.19 600.639 263.686C597.739 278.141 592.553 292.454 584.916 305.704C581.118 312.34 576.646 318.649 571.807 324.712C566.926 330.756 561.515 336.432 555.777 341.863C550.04 347.273 543.934 352.378 537.584 357.257C531.254 362.157 524.638 366.792 518.185 371.672C514.959 374.101 511.998 376.837 508.915 379.573C505.811 382.268 502.625 384.861 499.42 387.413C492.987 392.558 486.494 397.703 480.368 403.318C467.994 414.384 457.539 428.206 451.781 444.315C448.983 452.339 446.982 460.751 446.329 469.367C446.166 471.511 445.859 473.655 445.798 475.819C445.757 477.983 445.635 480.147 445.737 482.311C445.757 486.64 446.247 490.989 447.044 495.256C448.677 503.811 452.271 511.998 457.498 519.083C462.644 526.249 468.974 532.558 475.549 538.622C488.761 550.709 502.768 562.224 516.204 574.678C529.702 587.051 542.791 600.118 555.41 613.858C561.679 620.759 568.029 627.681 573.501 635.378C579.158 642.932 583.915 651.16 588.081 659.695C596.31 676.845 601.395 695.649 603.069 714.882C604.866 734.115 603.498 753.715 599.679 772.887C597.801 782.483 595.289 791.997 592.206 801.348C589.122 810.699 585.569 819.928 581.159 828.829L581.016 829.115H571.725C452.924 829.115 338.31 829.115 232.7 829.095H232.435L232.292 828.87C215.711 803.982 205.869 775.398 203.153 746.732C200.274 718.067 204.685 689.34 215.201 663.819C225.574 638.216 241.705 615.778 261.206 598.117C270.926 589.215 281.748 581.947 292.611 575.209C303.474 568.471 314.439 562.224 324.792 555.404C335.104 548.565 345.048 541.276 353.114 532.374C361.22 523.533 367.408 513.162 370.634 501.993C373.881 490.825 373.921 479.106 372.022 468.081C370.083 457.015 366.203 446.541 361.261 436.904C356.32 427.247 350.316 418.386 343.741 410.301C337.187 402.195 329.897 394.988 322.546 388.189C307.824 374.632 292.734 362.77 279.175 350.581C272.375 344.497 265.943 338.371 260.021 332.063C254.141 325.713 248.75 319.22 244.135 312.483C234.824 299.048 228.433 284.879 224.226 271.22C220.02 257.54 217.937 244.31 217.447 232.142C217.161 229.099 217.284 226.119 217.284 223.219C217.324 220.32 217.243 217.462 217.529 214.705C217.733 211.949 217.957 209.254 218.141 206.62C218.447 204.007 218.897 201.475 219.244 199.025C222.307 179.323 228.249 164.908 232.884 155.7C233.987 153.352 234.967 151.29 236.029 149.636C237.029 147.942 237.846 146.513 238.52 145.369C239.867 143.083 240.541 141.96 240.541 141.96C240.398 142.205 239.827 143.205 238.561 145.451C237.907 146.594 237.09 148.023 236.11 149.718C235.069 151.372 234.109 153.434 233.007 155.782C228.433 165.01 222.552 179.404 219.53 199.086C219.183 201.536 218.754 204.068 218.447 206.682C218.243 209.295 218.059 211.99 217.855 214.746C217.569 217.503 217.651 220.341 217.631 223.24C217.631 226.139 217.529 229.12 217.814 232.142C218.325 244.269 220.428 257.459 224.655 271.097C228.861 284.715 235.253 298.803 244.564 312.176C249.179 318.873 254.549 325.345 260.43 331.675C266.352 337.963 272.784 344.068 279.583 350.132C293.142 362.28 308.232 374.122 323.016 387.699C330.367 394.498 337.697 401.725 344.313 409.872C350.929 417.998 356.953 426.879 361.935 436.598C366.897 446.296 370.838 456.811 372.798 467.979C374.718 479.106 374.718 490.948 371.43 502.259C368.163 513.55 361.894 524.064 353.747 532.987C345.6 541.99 335.614 549.32 325.282 556.18C314.889 563.04 303.944 569.288 293.101 576.026C282.258 582.763 271.497 589.991 261.839 598.852C242.461 616.411 226.411 638.767 216.12 664.227C205.665 689.606 201.295 718.169 204.174 746.671C206.89 775.173 216.691 803.594 233.17 828.339L232.741 828.115C338.371 828.115 452.986 828.115 571.766 828.094H580.73L580.26 828.38C584.63 819.58 588.183 810.352 591.246 801.062C594.309 791.752 596.8 782.279 598.679 772.723C602.477 753.633 603.845 734.135 602.048 715.025C600.394 695.914 595.35 677.233 587.162 660.205C583.017 651.732 578.3 643.545 572.685 636.052C567.253 628.416 560.923 621.515 554.675 614.634C542.076 600.914 529.007 587.868 515.551 575.495C502.156 563.061 488.168 551.546 474.916 539.418C468.341 533.334 461.95 526.984 456.743 519.715C451.454 512.529 447.799 504.158 446.145 495.48C445.349 491.132 444.859 486.742 444.818 482.373C444.716 480.188 444.838 478.003 444.879 475.819C444.961 473.634 445.247 471.47 445.43 469.306C446.084 460.629 448.105 452.135 450.944 444.009C456.763 427.757 467.341 413.772 479.796 402.644C485.963 396.989 492.477 391.823 498.909 386.699C502.135 384.126 505.3 381.553 508.384 378.879C511.406 376.184 514.448 373.387 517.695 370.937C524.188 366.036 530.784 361.422 537.094 356.522C543.424 351.663 549.509 346.579 555.226 341.189C560.923 335.799 566.314 330.143 571.174 324.141C575.972 318.097 580.424 311.829 584.222 305.255C591.818 292.106 596.984 277.876 599.884 263.523C602.701 249.129 603.151 234.592 602.109 220.524C601.109 206.416 598.25 192.798 594.779 179.731C591.389 166.603 586.611 154.189 581.874 142.143L582.221 142.368C476.672 142.286 391.298 142.225 332.307 142.184C302.8 142.143 279.89 142.103 264.35 142.082C256.591 142.062 250.649 142.041 246.667 142.041C242.685 142.041 240.623 142 240.623 142H240.541Z" fill="#263238"/>
<path d="M568.253 236.531C619.506 244.964 538.685 335.717 492.946 371.529C466.462 392.272 438.017 414.752 425.439 445.949C411.166 481.352 421.743 521.124 414.821 556.732C413.677 562.652 404.938 561.713 405.019 555.69C405.367 532.313 404.734 508.956 400.854 485.946C395.361 453.319 382.803 421.02 359.933 397.111C341.27 377.593 316.787 364.607 296.857 346.375C267.78 319.731 237.906 285.369 234.986 246.025C234.986 246.025 290.813 201.067 321.81 206.743C358.034 213.378 393.687 269.26 449.799 262.849C488.984 258.378 508.75 226.731 568.212 236.511L568.253 236.531Z" fill="#D36135"/>
<path d="M572.808 722.334C571.521 709.512 568.091 695.016 556.717 688.973C549.836 685.318 541.443 685.726 533.888 687.707C526.333 689.687 519.247 693.117 511.774 695.343C497.051 699.712 480.92 699.202 466.504 693.914C452.598 688.809 440.653 679.581 427.748 672.312C414.842 665.044 399.712 659.654 385.336 663.227C360.547 669.393 347.642 699.242 323.139 706.45C312.255 709.655 300.555 707.858 289.467 705.347C278.399 702.836 267.271 699.61 255.938 700.039C247.056 700.365 237.806 703.448 231.557 709.533L231.618 709.451C231.618 709.451 231.496 709.573 231.435 709.655C230.414 710.676 229.474 711.758 228.617 712.942C221.021 723.069 219.796 736.708 222.144 749.08C224.757 762.944 231.23 775.745 238.173 788.016C246.361 802.471 255.652 816.865 269.17 826.481C285.853 838.364 306.844 830.156 327.263 831.769C374.902 835.526 426.175 838.099 473.814 834.403C498.991 832.443 522.576 835.179 542.546 819.744C556.595 808.882 565.743 792.507 570.153 775.296C574.564 758.084 574.543 740.036 572.746 722.354L572.808 722.334Z" fill="#D36135"/>
<g opacity="0.24">
<path d="M482.88 697.793C480.184 701.917 479.041 707.43 481.634 711.615C484.228 715.801 487.74 719.598 488.863 724.396C490.639 731.91 486.106 739.28 482.716 746.222C476.672 758.656 473.936 772.825 475.958 786.505C478 800.184 485.004 813.231 495.948 821.683C500.788 825.42 507.077 828.319 512.917 826.481C518.41 824.766 521.963 819.192 523.045 813.537C524.127 807.881 523.229 802.063 522.514 796.366C519.186 769.865 519.86 742.874 524.536 716.576C525.312 712.187 526.067 707.164 523.27 703.673C521.493 701.447 518.655 700.406 515.939 699.487C505.321 695.955 493.866 699.875 482.859 697.793" fill="black"/>
</g>
<path d="M207.155 844.448C207.155 844.448 206.196 828.482 227.023 819.58H593.043C593.043 819.58 612.135 829.238 614.483 844.101L207.155 844.428V844.448Z" fill="#263238"/>
<path d="M585.304 143.96C585.12 144.042 584.916 144.144 584.732 144.226L240.562 142.021C240.562 142.021 239.336 141.245 237.519 139.816C227.718 132.139 233.211 116.397 245.666 116.5L579.709 119.195C593.492 119.297 597.78 138.08 585.324 143.981L585.304 143.96Z" fill="#263238"/>
<g opacity="0.24">
<path d="M530.212 275.222C530.906 276.549 528.313 279.427 523.392 283.797C518.45 288.186 511.222 294.189 502.033 301.6C492.803 308.95 481.614 317.791 467.361 326.06C460.214 330.184 452.271 333.92 443.592 336.963C439.223 338.433 434.69 339.801 429.932 340.74C425.195 341.761 420.253 342.434 415.169 342.659C405.04 343.231 394.729 341.761 385.499 338.596C376.331 335.411 368.49 330.919 361.649 326.427C354.788 321.874 348.866 317.383 343.292 313.095C337.738 308.787 332.674 304.642 328.161 300.722C310.09 285.063 300.574 273.547 302.412 271.322C304.311 269.015 317.114 276.344 337.044 288.595C342.026 291.657 347.478 295.006 353.338 298.599C359.178 302.152 365.467 306.092 371.879 309.726C378.311 313.361 385.029 316.668 391.992 318.812C398.915 320.874 406.286 321.854 414.127 321.425C429.809 320.629 445.022 315.096 458.192 308.746C471.445 302.274 483.288 294.924 493.62 289.146C503.932 283.307 512.774 278.978 519.185 276.671C525.618 274.364 529.559 273.956 530.212 275.222Z" fill="black"/>
</g>
<path d="M405.286 599.403C409.063 598.076 413.576 601.874 412.923 605.814C412.249 609.755 406.735 611.878 403.611 609.387C400.487 606.896 401.304 601.057 405 599.526" fill="#D36135"/>
<path d="M282.197 332.185C282.197 332.185 281.748 331.797 280.972 330.96C280.155 330.062 279.032 328.837 277.643 327.305C276.234 325.692 274.376 323.814 272.477 321.425C270.558 319.036 268.373 316.321 265.984 313.34C263.758 310.196 261.246 306.827 258.714 303.07C257.51 301.151 256.264 299.171 254.978 297.129C254.345 296.108 253.671 295.087 253.058 294.005C252.466 292.923 251.874 291.821 251.261 290.698C246.238 281.857 241.766 271.485 238.581 260.174C235.395 248.843 233.905 237.654 233.762 227.466C233.762 224.914 233.884 222.444 233.945 220.034C234.007 218.83 233.986 217.646 234.109 216.482C234.231 215.318 234.354 214.175 234.476 213.052C234.742 210.806 234.905 208.621 235.212 206.539C235.579 204.477 235.947 202.496 236.294 200.597C236.886 196.779 237.886 193.451 238.601 190.491C238.989 189.021 239.295 187.632 239.683 186.387C240.092 185.162 240.459 184.019 240.806 182.977C241.46 181.017 241.991 179.445 242.379 178.281C242.746 177.22 242.95 176.669 242.991 176.669C243.032 176.669 242.889 177.261 242.583 178.343C242.236 179.527 241.787 181.099 241.194 183.079C240.888 184.121 240.541 185.264 240.173 186.489C239.806 187.735 239.54 189.143 239.173 190.613C238.499 193.574 237.56 196.922 237.029 200.72C236.702 202.619 236.375 204.579 236.028 206.641C235.742 208.703 235.599 210.887 235.354 213.113C235.252 214.236 235.13 215.379 235.007 216.523C234.905 217.686 234.926 218.871 234.885 220.055C234.844 222.444 234.721 224.914 234.742 227.446C234.926 237.552 236.437 248.639 239.602 259.888C242.767 271.118 247.177 281.408 252.119 290.228C252.711 291.351 253.303 292.454 253.895 293.536C254.487 294.618 255.161 295.618 255.794 296.659C257.06 298.701 258.286 300.682 259.47 302.601C261.961 306.358 264.432 309.747 266.617 312.891C268.965 315.913 271.089 318.628 272.967 321.058C274.805 323.487 276.622 325.386 277.97 327.06C279.297 328.653 280.359 329.898 281.155 330.838C281.87 331.715 282.238 332.185 282.217 332.206L282.197 332.185Z" fill="#263238"/>
<path d="M262.818 635.5C262.818 635.5 262.941 635.255 263.206 634.827C263.513 634.357 263.901 633.724 264.411 632.907C264.962 632.05 265.636 631.009 266.412 629.804C266.821 629.192 267.249 628.538 267.699 627.824C268.209 627.15 268.781 626.476 269.373 625.721C270.578 624.251 271.925 622.617 273.375 620.821C274.948 619.126 276.744 617.37 278.643 615.451C282.523 611.694 287.199 607.692 292.651 603.65C303.494 595.442 317.481 587.275 332.633 577.741C340.147 572.902 348.07 567.798 355.564 561.591C363.058 555.425 370.286 548.32 376.147 539.847C387.684 522.696 392.36 502.831 392.788 485.068C393.258 467.182 389.44 451.237 384.968 438.537C380.435 425.797 375.228 416.079 371.45 409.545C369.551 406.258 367.999 403.767 366.937 402.073C366.427 401.256 366.039 400.623 365.733 400.153C365.467 399.725 365.345 399.48 365.345 399.48C365.345 399.48 365.528 399.684 365.814 400.092C366.141 400.562 366.57 401.174 367.101 401.97C368.224 403.624 369.837 406.095 371.797 409.341C375.697 415.834 381.027 425.511 385.682 438.292C390.277 451.033 394.197 467.06 393.789 485.109C393.707 489.6 393.34 494.215 392.666 498.87C392.012 503.545 391.032 508.262 389.685 512.978C387.051 522.411 382.844 531.802 377.065 540.459C371.144 549.055 363.834 556.221 356.278 562.407C348.723 568.655 340.78 573.739 333.225 578.578C318.012 588.072 304.025 596.157 293.162 604.262C287.71 608.264 283.013 612.184 279.113 615.88C277.214 617.778 275.397 619.493 273.824 621.168C272.354 622.924 270.986 624.537 269.761 625.986C269.148 626.721 268.556 627.374 268.046 628.048C267.576 628.742 267.127 629.396 266.718 629.988C265.902 631.172 265.207 632.193 264.636 633.03C264.084 633.806 263.656 634.418 263.329 634.888C263.023 635.296 262.88 635.521 262.859 635.5H262.818Z" fill="#263238"/>
<path d="M243.829 671.577C243.829 671.577 243.706 671.924 243.38 672.517C242.992 673.211 242.501 674.068 241.93 675.109C241.276 676.212 240.5 677.6 239.704 679.254C238.908 680.908 237.887 682.725 237.029 684.869C236.58 685.931 236.09 687.033 235.6 688.197C235.11 689.361 234.701 690.606 234.232 691.872C233.231 694.383 232.455 697.18 231.577 700.1C230.005 705.98 228.698 712.554 228.004 719.557C227.391 726.56 227.493 733.278 227.963 739.341C228.31 742.363 228.555 745.262 229.086 747.917C229.331 749.244 229.494 750.55 229.76 751.775C230.046 753 230.311 754.164 230.576 755.308C231.026 757.574 231.7 759.554 232.19 761.31C232.659 763.086 233.17 764.577 233.619 765.782C234.007 766.904 234.313 767.844 234.579 768.599C234.783 769.252 234.885 769.6 234.844 769.62C234.803 769.62 234.66 769.314 234.375 768.681C234.068 767.946 233.68 767.027 233.231 765.924C232.721 764.72 232.149 763.25 231.618 761.473C231.067 759.718 230.352 757.737 229.841 755.471C229.556 754.348 229.27 753.164 228.963 751.939C228.657 750.714 228.473 749.407 228.208 748.06C227.636 745.385 227.35 742.465 226.983 739.423C226.452 733.298 226.329 726.52 226.942 719.455C227.636 712.391 228.984 705.755 230.617 699.834C231.536 696.894 232.353 694.097 233.394 691.566C233.905 690.3 234.313 689.034 234.844 687.891C235.375 686.747 235.865 685.624 236.355 684.583C237.274 682.439 238.336 680.622 239.194 679.009C240.031 677.376 240.868 676.028 241.583 674.926C242.236 673.925 242.767 673.088 243.216 672.414C243.604 671.843 243.808 671.557 243.849 671.577H243.829Z" fill="#263238"/>
<path d="M496.274 720.639C496.274 720.639 496.152 720.762 495.866 720.946C495.519 721.15 495.111 721.415 494.6 721.742C493.395 722.477 491.741 723.457 489.638 724.723C488.556 725.376 487.351 726.07 486.044 726.846C484.697 727.581 483.206 728.275 481.613 729.092C478.407 730.644 474.834 732.604 470.628 734.196C468.545 735.054 466.36 735.952 464.093 736.871C461.827 737.79 459.356 738.484 456.865 739.362C451.903 741.179 446.39 742.465 440.652 743.976C429.054 746.549 416.087 748.447 402.365 748.897C388.643 749.182 375.575 747.957 363.854 745.997C358.035 744.793 352.48 743.792 347.416 742.241C344.884 741.506 342.393 740.934 340.065 740.138C337.758 739.321 335.532 738.545 333.409 737.81C329.121 736.442 325.465 734.666 322.178 733.278C320.544 732.563 319.013 731.93 317.624 731.277C316.277 730.562 315.052 729.929 313.928 729.337C311.764 728.194 310.069 727.275 308.824 726.622C308.293 726.336 307.864 726.091 307.517 725.887C307.231 725.723 307.088 725.621 307.088 725.601C307.088 725.601 307.251 725.642 307.578 725.785C307.946 725.948 308.395 726.173 308.946 726.418C310.212 727.03 311.948 727.888 314.133 728.949C315.256 729.5 316.501 730.133 317.869 730.807C319.258 731.44 320.81 732.032 322.443 732.726C325.751 734.053 329.406 735.768 333.694 737.096C335.818 737.81 338.023 738.566 340.351 739.362C342.659 740.138 345.15 740.689 347.682 741.404C352.725 742.914 358.259 743.874 364.058 745.038C375.718 746.937 388.705 748.121 402.365 747.855C416.005 747.427 428.911 745.569 440.468 743.057C446.185 741.587 451.678 740.342 456.64 738.566C459.131 737.729 461.582 737.034 463.848 736.156C466.115 735.258 468.3 734.38 470.362 733.563C474.569 732.032 478.142 730.113 481.368 728.623C482.961 727.847 484.472 727.173 485.82 726.458C487.147 725.723 488.352 725.029 489.454 724.417C491.578 723.232 493.273 722.293 494.498 721.62C495.029 721.334 495.478 721.109 495.825 720.905C496.132 720.742 496.295 720.68 496.295 720.701L496.274 720.639Z" fill="#263238"/>
<path d="M517.573 288.533C517.573 288.533 517.431 288.676 517.145 288.942C516.798 289.228 516.348 289.595 515.797 290.044C514.551 291.045 512.795 292.433 510.59 294.209C506.036 297.803 499.482 303.009 491.171 309.216C482.86 315.382 472.773 322.569 460.807 329.286C454.763 332.512 448.311 335.819 441.245 338.29C434.201 340.781 426.605 342.679 418.661 343.312C402.714 344.394 387.583 340.352 375.29 334.288C369.144 331.205 363.59 327.755 358.526 324.325C353.544 320.813 348.99 317.403 344.968 314.136C336.881 307.644 330.551 302.152 326.141 298.395C323.997 296.537 322.302 295.087 321.097 294.026C320.566 293.556 320.137 293.168 319.811 292.862C319.525 292.596 319.382 292.454 319.402 292.433C319.402 292.433 319.586 292.535 319.892 292.78C320.24 293.066 320.689 293.413 321.26 293.862C322.506 294.863 324.242 296.272 326.427 298.068C330.898 301.743 337.31 307.133 345.437 313.544C349.48 316.77 354.054 320.119 359.037 323.59C364.08 326.958 369.614 330.368 375.719 333.41C387.93 339.372 402.857 343.312 418.6 342.251C426.421 341.638 433.915 339.76 440.898 337.31C447.902 334.88 454.314 331.613 460.338 328.428C472.283 321.793 482.37 314.688 490.742 308.603C499.094 302.478 505.73 297.374 510.345 293.883C512.612 292.188 514.408 290.841 515.674 289.881C516.246 289.452 516.716 289.126 517.083 288.86C517.41 288.636 517.573 288.533 517.594 288.533H517.573Z" fill="#263238"/>
<g opacity="0.24">
<path d="M333.408 737.79C343.087 730.317 356.686 732.134 368.632 734.646C380.598 737.157 392.645 741.24 404.754 739.546C413.881 738.259 422.253 733.788 431.258 731.828C440.263 729.868 451.188 731.318 456.17 739.056C416.556 751.939 372.736 751.469 333.408 737.769" fill="black"/>
</g>
<path d="M671.086 682.378L627.102 633.152L626.653 692.995L639.885 731.379L508.343 754.185L502.768 650.405L493.294 570.697C492.13 560.937 497.704 551.607 506.852 548.013L543.056 533.762L594.043 543.113L614.544 550.913C623.161 554.179 630.839 559.529 636.904 566.45L698.652 637.052" fill="#D36135"/>
<path d="M624.039 621.372C624.039 621.168 626.939 621.596 631.472 620.841C635.964 620.147 642.172 617.942 647.317 613.205C652.463 608.448 655.138 602.445 656.2 598.035C657.302 593.584 657.119 590.665 657.323 590.665C657.384 590.665 657.486 591.379 657.507 592.686C657.527 593.993 657.405 595.891 656.935 598.199C656.036 602.772 653.382 609.04 648.032 613.981C642.682 618.901 636.209 621.045 631.574 621.576C629.246 621.862 627.347 621.841 626.04 621.699C624.733 621.576 624.039 621.413 624.039 621.351V621.372Z" fill="white"/>
<path d="M627.878 690.443C628.184 690.443 628.266 669.699 628.062 644.137C627.857 618.554 627.429 597.831 627.122 597.831C626.816 597.831 626.734 618.554 626.939 644.137C627.143 669.699 627.572 690.422 627.878 690.422V690.443Z" fill="#263238"/>
<path d="M623.059 705.674L543.566 673.68C537.155 671.108 532.764 665.105 532.234 658.225L526.414 582.028C526.414 582.028 527.108 549.626 506.852 548.054L495.336 552.587C480.45 560.488 476.774 582.151 478.796 598.893C481.675 622.658 482.88 656.305 486.106 676.927C488.74 693.811 498.419 708.655 514.938 713.004L612.829 734.196L623.059 705.694V705.674Z" fill="#D36135"/>
<path d="M527.579 593.625C527.579 593.625 527.701 594.217 527.824 595.361C527.946 596.606 528.13 598.28 528.334 600.383C528.743 604.854 529.314 611.143 530.009 618.861C530.683 626.701 531.479 635.97 532.357 646.281C532.582 648.853 532.806 651.507 533.031 654.202C533.276 656.898 533.439 659.674 534.052 662.349C534.644 665.044 535.93 667.576 537.993 669.495C540.055 671.414 542.628 672.843 545.323 674.048C567.233 683.521 587.449 691.361 602.11 696.854C609.379 699.528 615.301 701.713 619.528 703.265C621.508 704 623.081 704.571 624.265 705C625.347 705.408 625.899 705.633 625.899 705.674C625.899 705.715 625.306 705.551 624.204 705.204C623.019 704.816 621.427 704.306 619.405 703.653C615.24 702.264 609.257 700.202 601.865 697.548C587.122 692.239 566.886 684.522 544.895 675.007C542.158 673.762 539.483 672.312 537.278 670.25C535.052 668.209 533.623 665.391 533.031 662.573C532.398 659.756 532.255 656.959 532.01 654.264C531.785 651.569 531.581 648.914 531.377 646.342C530.58 636.031 529.866 626.742 529.253 618.901C528.681 611.163 528.232 604.875 527.906 600.404C527.783 598.301 527.681 596.606 527.599 595.361C527.538 594.217 527.518 593.605 527.558 593.605L527.579 593.625Z" fill="#263238"/>
<path d="M482.043 635.051C482.043 635.051 482.124 635.398 482.206 636.072C482.267 636.868 482.369 637.828 482.472 639.012C482.717 641.728 483.023 645.382 483.411 649.833C483.84 654.386 484.391 659.817 485.187 665.82C486.004 671.802 486.964 678.417 488.781 685.114C489.639 688.503 490.844 691.627 492.661 694.322C494.478 697.037 496.5 699.467 498.603 701.611C502.809 705.898 507.302 709.063 511.324 711.146C519.451 715.372 525.373 715.433 525.291 715.719C525.291 715.76 524.924 715.739 524.25 715.699C523.576 715.658 522.575 715.576 521.309 715.311C518.777 714.861 515.122 713.861 510.977 711.819C506.832 709.778 502.217 706.633 497.909 702.305C495.765 700.12 493.682 697.67 491.803 694.914C489.904 692.137 488.618 688.809 487.76 685.42C485.922 678.601 484.983 671.986 484.228 665.963C483.493 659.94 483.003 654.488 482.676 649.915C482.349 645.341 482.165 641.626 482.063 639.073C482.043 637.889 482.022 636.909 482.002 636.113C482.002 635.439 482.002 635.072 482.063 635.072L482.043 635.051Z" fill="#263238"/>
<path d="M516.021 688.381C515.919 688.36 516.246 686.645 517.471 684.154C518.676 681.663 520.902 678.417 524.148 675.64C527.395 672.864 530.948 671.169 533.603 670.373C536.278 669.556 537.993 669.495 538.013 669.597C538.054 669.781 536.38 670.107 533.848 671.067C531.316 672.026 527.967 673.762 524.843 676.416C521.718 679.091 519.472 682.133 518.145 684.481C516.797 686.829 516.205 688.421 516.042 688.36L516.021 688.381Z" fill="#263238"/>
<path d="M531.662 630.437C531.662 630.437 531.846 630.498 532.173 630.662C532.54 630.866 533.01 631.111 533.602 631.417C534.868 632.009 536.747 632.969 539.279 633.826C544.281 635.562 552.102 637.318 561.556 635.725C570.888 634.194 581.731 628.702 589.245 618.513C592.961 613.491 595.841 607.305 596.494 600.506C596.821 597.137 596.555 593.625 595.432 590.318C594.35 587.01 592.349 583.968 589.694 581.559C587.06 579.149 583.793 577.455 580.363 577.026C576.973 576.495 573.359 577.394 571.011 579.66C569.887 580.803 569.173 582.314 569.193 583.886C569.193 585.458 569.785 586.99 570.725 588.255C572.603 590.828 575.789 592.033 578.811 592.482C584.998 593.339 591.083 592.216 596.188 589.991C601.313 587.765 605.499 584.437 608.501 580.783C611.523 577.108 613.381 573.126 614.484 569.533C615.607 565.919 615.933 562.632 615.995 559.978C616.035 557.303 615.75 555.241 615.545 553.853C615.423 553.199 615.341 552.689 615.26 552.281C615.198 551.934 615.178 551.729 615.198 551.729C615.198 551.729 616.321 554.567 616.423 559.978C616.423 562.673 616.158 566.001 615.076 569.717C613.994 573.392 612.156 577.475 609.093 581.273C606.05 585.05 601.783 588.48 596.555 590.808C591.328 593.115 585.1 594.319 578.688 593.462C575.523 593.013 572.072 591.767 569.928 588.888C568.887 587.5 568.172 585.744 568.172 583.907C568.152 582.069 568.989 580.252 570.296 578.945C572.95 576.373 576.891 575.454 580.526 576.005C584.201 576.475 587.673 578.272 590.429 580.803C593.206 583.335 595.31 586.54 596.453 590.011C597.617 593.482 597.903 597.137 597.556 600.628C596.862 607.652 593.88 614.001 590.062 619.126C582.343 629.498 571.215 635.031 561.699 636.48C552.061 638.012 544.159 636.093 539.156 634.235C534.092 632.295 531.703 630.478 531.703 630.478L531.662 630.437Z" fill="white"/>
<path d="M479.593 610.102C479.593 610.102 479.981 609.469 480.9 608.468C481.818 607.488 483.227 606.141 485.188 604.732C489.047 601.833 495.438 599.199 502.769 598.505C506.444 598.117 509.997 598.28 513.121 598.934C516.266 599.587 518.961 600.649 521.105 601.731C523.25 602.813 524.883 603.895 525.965 604.691C527.048 605.487 527.599 605.977 527.558 606.039C527.456 606.202 525.067 604.405 520.779 602.425C516.532 600.404 510.038 598.709 502.871 599.567C495.683 600.24 489.476 602.69 485.596 605.365C481.655 607.978 479.715 610.265 479.572 610.102H479.593Z" fill="white"/>
<path d="M492.313 555.629C492.477 555.445 494.355 558.059 498.745 560.305C500.91 561.427 503.728 562.367 506.934 562.714C510.139 563.061 513.754 562.693 517.184 561.305C520.594 559.855 523.412 557.569 525.434 555.057C527.476 552.546 528.782 549.912 529.538 547.564C531.049 542.868 530.538 539.704 530.784 539.704C530.845 539.704 531.008 540.459 531.049 541.868C531.11 543.277 530.947 545.339 530.253 547.769C529.579 550.198 528.292 552.995 526.21 555.649C524.147 558.283 521.207 560.733 517.593 562.265C513.958 563.735 510.16 564.082 506.831 563.673C503.483 563.265 500.604 562.203 498.398 560.958C496.193 559.712 494.621 558.365 493.661 557.344C492.701 556.303 492.272 555.649 492.313 555.629Z" fill="white"/>
<path d="M561.576 680.908C561.576 680.908 561.597 680.398 561.74 679.397C561.964 678.438 562.27 676.988 563.149 675.293C564.762 671.863 568.743 667.576 575.053 664.962C581.261 662.165 589.816 661.634 598.413 664.125C602.619 665.371 607.438 666.922 610.583 671.026C612.135 673.047 612.645 676.049 611.481 678.499C610.358 680.969 608.153 682.664 605.825 683.848C603.457 685.012 600.884 685.665 598.29 685.706C595.738 685.747 593.063 685.114 591.062 683.46C589.04 681.827 587.979 679.315 587.836 676.906C587.652 674.477 588.142 672.149 588.918 670.026C592.308 661.532 599.148 656.122 605.294 653.447C611.543 650.711 617.199 650.425 620.936 650.752C624.693 651.14 626.653 651.957 626.653 651.957C626.612 652.1 624.632 651.426 620.915 651.16C617.219 650.956 611.686 651.365 605.621 654.121C602.599 655.489 599.495 657.469 596.698 660.164C593.921 662.859 591.409 666.289 589.857 670.332C589.122 672.353 588.693 674.579 588.857 676.804C589.02 679.009 589.959 681.194 591.736 682.623C593.492 684.073 595.901 684.665 598.29 684.603C600.7 684.563 603.13 683.93 605.356 682.848C607.54 681.745 609.562 680.153 610.522 678.029C611.522 675.926 611.114 673.415 609.746 671.598C608.398 669.74 606.438 668.413 604.437 667.371C602.415 666.351 600.251 665.656 598.147 665.023C589.714 662.533 581.424 662.982 575.339 665.616C569.152 668.086 565.19 672.149 563.516 675.436C561.78 678.744 561.719 680.908 561.576 680.867V680.908Z" fill="white"/>
<path d="M508.649 709.614C508.608 709.41 511.671 709.165 516.265 707.511C520.839 705.919 526.904 702.632 531.886 697.139C536.869 691.627 539.503 685.257 540.646 680.54C541.81 675.804 541.769 672.741 541.973 672.741C542.035 672.741 542.116 673.497 542.096 674.885C542.076 676.273 541.892 678.274 541.402 680.704C540.442 685.543 537.828 692.158 532.703 697.834C527.578 703.51 521.248 706.776 516.531 708.205C514.162 708.94 512.181 709.328 510.813 709.492C509.445 709.655 508.669 709.655 508.669 709.594L508.649 709.614Z" fill="white"/>
<path d="M482.88 650.384C482.88 650.384 483.206 650.221 483.84 649.997C484.473 649.792 485.432 649.486 486.678 649.18C489.149 648.588 492.865 647.751 497.5 648.077C499.808 648.261 502.34 648.792 504.851 649.894C507.363 650.997 509.854 652.753 511.712 655.285C513.529 657.816 514.653 661.103 514.387 664.554C514.265 666.269 513.734 667.984 512.815 669.515C511.875 671.026 510.487 672.394 508.649 673.007C506.832 673.578 504.708 673.292 503.279 671.945C501.87 670.577 501.523 668.658 501.421 666.983C501.298 663.594 502.033 660.348 503.299 657.53C505.831 651.834 510.528 648.098 514.898 646.526C519.288 644.892 523.188 645.015 525.699 645.464C526.965 645.689 527.946 645.974 528.579 646.199C529.212 646.444 529.538 646.587 529.518 646.607C529.477 646.709 528.15 646.179 525.638 645.872C523.147 645.566 519.369 645.586 515.163 647.24C510.997 648.833 506.566 652.467 504.198 657.939C503.013 660.634 502.34 663.737 502.462 666.943C502.544 668.494 502.911 670.148 503.994 671.189C505.076 672.21 506.811 672.476 508.322 672.006C509.834 671.516 511.079 670.332 511.916 668.984C512.753 667.616 513.223 666.044 513.346 664.472C513.611 661.328 512.59 658.225 510.916 655.856C509.201 653.488 506.852 651.793 504.484 650.691C502.095 649.588 499.665 649.037 497.418 648.812C492.906 648.404 489.23 649.098 486.739 649.568C484.248 650.078 482.88 650.446 482.859 650.364L482.88 650.384Z" fill="white"/>
<g opacity="0.3">
<path d="M600.231 696.588C591.737 691.79 583.426 688.095 574.523 684.052C565.64 680.01 556.942 674.824 551.122 666.984C540.157 652.202 541.403 630.866 530.172 616.268C530.907 626.068 531.642 635.888 532.377 645.689C533.051 654.672 531.662 663.574 537.462 669.679C542.342 674.824 551.857 678.764 558.596 680.99C572.134 685.461 586.713 692.076 600.231 696.547" fill="black"/>
</g>
<path d="M738.328 808.576C738.328 808.576 804.835 826.971 807.51 827.911C811.512 829.319 810.838 843.999 804.61 843.775C801.67 843.672 753.52 845.571 747.435 845.183C741.35 844.795 723.014 837.568 723.014 837.568L738.328 808.555V808.576Z" fill="#D36135"/>
<path d="M766.037 833.954C766.364 833.995 766.813 830.483 768.978 826.808C771.081 823.113 773.878 820.948 773.674 820.683C773.552 820.417 770.264 822.296 767.998 826.257C765.711 830.177 765.751 833.974 766.037 833.954Z" fill="#263238"/>
<path d="M759.096 830.81C759.422 830.871 760.096 827.727 761.873 824.256C763.608 820.765 765.732 818.355 765.487 818.131C765.303 817.906 762.71 820.091 760.872 823.766C759.014 827.42 758.81 830.81 759.096 830.83V830.81Z" fill="#263238"/>
<path d="M752.602 829.054C752.928 829.033 752.683 825.705 754.153 822.03C755.562 818.315 758.013 816.048 757.768 815.803C757.625 815.558 754.644 817.6 753.112 821.622C751.519 825.624 752.316 829.156 752.602 829.054Z" fill="#263238"/>
<path d="M753.786 820.479C753.909 820.499 754.501 818.662 754.501 815.538C754.501 813.986 754.317 812.128 753.827 810.107C753.582 809.106 753.255 808.065 752.847 807.024C752.622 806.493 752.377 805.881 751.785 805.391C751.173 804.839 750.029 804.941 749.498 805.513C748.886 806.044 748.702 806.799 748.62 807.391C748.559 808.004 748.518 808.576 748.539 809.147C748.539 810.291 748.702 811.393 748.947 812.394C749.437 814.415 750.233 816.13 750.989 817.477C752.541 820.172 753.888 821.561 753.97 821.479C754.113 821.377 753.01 819.825 751.683 817.11C751.03 815.762 750.356 814.088 749.947 812.169C749.743 811.209 749.621 810.189 749.621 809.127C749.641 808.106 749.621 806.82 750.233 806.33C750.56 806.064 750.846 806.044 751.111 806.248C751.397 806.473 751.642 806.922 751.847 807.412C752.255 808.412 752.602 809.392 752.847 810.352C753.378 812.271 753.623 814.047 753.725 815.538C753.929 818.539 753.623 820.438 753.807 820.458L753.786 820.479Z" fill="#263238"/>
<path d="M753.704 819.785C753.724 819.662 752.132 819.111 749.416 819.09C748.068 819.09 746.435 819.233 744.699 819.662C743.842 819.887 742.923 820.111 741.983 820.663C741.064 821.132 740.125 822.398 740.472 823.705C740.758 824.95 741.82 825.808 742.861 826.073C743.923 826.359 744.944 826.257 745.843 826.073C747.66 825.644 749.089 824.746 750.172 823.95C752.295 822.275 753.337 820.989 753.255 820.908C753.132 820.765 751.887 821.867 749.702 823.317C748.62 824.011 747.252 824.766 745.618 825.073C744.801 825.236 743.944 825.277 743.147 825.032C742.371 824.807 741.718 824.215 741.534 823.46C741.35 822.725 741.8 822.03 742.514 821.602C743.229 821.153 744.107 820.908 744.924 820.663C746.578 820.193 748.109 819.968 749.396 819.887C751.989 819.703 753.622 819.968 753.663 819.785H753.704Z" fill="#263238"/>
<path d="M776.267 834.648C776.594 834.607 776.267 831.769 777.574 828.646C778.82 825.501 781.045 823.705 780.821 823.439C780.719 823.174 777.921 824.746 776.533 828.217C775.103 831.688 775.981 834.75 776.247 834.628L776.267 834.648Z" fill="#263238"/>
<path d="M729.853 837.731C729.853 837.731 730.731 838.221 732.426 838.936C734.141 839.589 736.633 840.487 739.818 841.222C746.168 842.815 755.255 843.734 765.199 843.632C775.164 843.53 784.149 843.06 790.663 842.815C793.746 842.652 796.319 842.509 798.361 842.407C800.178 842.284 801.179 842.182 801.179 842.1C801.179 842.019 800.158 841.978 798.34 841.978C796.298 841.978 793.705 842.019 790.622 842.039C783.883 842.162 775.001 842.345 765.179 842.529C755.255 842.631 746.311 841.855 739.961 840.467C733.611 839.16 729.894 837.527 729.812 837.731H729.853Z" fill="#263238"/>
<path d="M727.895 839.242C727.976 839.405 729.814 838.323 732.877 836.976C735.919 835.669 740.473 834.117 745.455 834.893C750.458 835.669 754.011 839.017 756.339 841.365C758.667 843.795 760.035 845.388 760.178 845.285C760.28 845.204 759.136 843.427 756.931 840.835C755.808 839.548 754.379 838.058 752.52 836.71C750.683 835.363 748.314 834.199 745.66 833.791C740.289 832.974 735.572 834.771 732.571 836.261C729.528 837.813 727.854 839.12 727.915 839.222L727.895 839.242Z" fill="#263238"/>
<path d="M667.737 790.221C667.737 790.221 604.804 831.422 602.538 833.117C599.148 835.669 603.028 847.878 608.909 845.755C611.686 844.755 664.491 830.075 670.167 827.849C675.844 825.624 691.138 813.19 691.138 813.19L667.737 790.2V790.221Z" fill="#D36135"/>
<path d="M649.053 822.806C649.339 822.745 648.216 819.111 644.847 816.069C641.498 812.986 637.781 812.21 637.761 812.496C637.639 812.822 640.987 814.007 644.091 816.906C647.256 819.744 648.747 822.97 649.053 822.827V822.806Z" fill="#263238"/>
<path d="M654.709 817.702C654.974 817.6 653.749 814.435 650.87 811.516C648.011 808.576 644.867 807.289 644.765 807.555C644.601 807.841 647.358 809.494 650.074 812.292C652.81 815.068 654.403 817.845 654.709 817.702Z" fill="#263238"/>
<path d="M660.366 814.068C660.651 814.068 660.345 810.474 657.609 807.146C654.914 803.798 651.463 802.736 651.401 803.022C651.258 803.328 654.26 804.737 656.731 807.841C659.263 810.903 660.018 814.149 660.345 814.068H660.366Z" fill="#263238"/>
<path d="M656.629 806.248C656.792 806.166 655.934 804.472 655.199 801.532C654.832 800.062 654.546 798.306 654.464 796.325C654.423 795.345 654.444 794.304 654.525 793.222C654.566 792.712 654.648 792.201 654.873 791.895C655.077 791.609 655.342 791.548 655.73 791.691C656.445 791.977 656.833 793.202 657.16 794.161C657.486 795.162 657.69 796.183 657.772 797.163C657.976 799.123 657.813 800.919 657.609 802.41C657.16 805.391 656.567 807.208 656.751 807.269C656.874 807.31 657.731 805.595 658.385 802.553C658.711 801.042 658.936 799.163 658.793 797.081C658.711 796.04 658.528 794.957 658.201 793.855C658.038 793.304 657.833 792.773 657.588 792.201C657.323 791.65 656.915 790.997 656.179 790.67C655.506 790.302 654.382 790.527 653.974 791.262C653.545 791.915 653.504 792.569 653.464 793.14C653.382 794.263 653.382 795.345 653.464 796.387C653.607 798.449 653.995 800.266 654.464 801.756C655.424 804.737 656.547 806.309 656.649 806.248H656.629Z" fill="#263238"/>
<path d="M656.507 805.574C656.588 805.738 658.059 804.982 660.591 804.37C661.857 804.063 663.388 803.798 665.103 803.757C665.961 803.757 666.88 803.716 667.697 803.921C668.513 804.104 669.167 804.615 669.208 805.391C669.269 806.187 668.82 806.942 668.146 807.391C667.472 807.861 666.614 808.065 665.798 808.167C664.144 808.351 662.633 808.065 661.367 807.718C658.855 807.003 657.324 806.33 657.262 806.513C657.221 806.636 658.59 807.534 661.142 808.474C662.408 808.923 664.042 809.331 665.9 809.188C666.819 809.106 667.819 808.902 668.738 808.29C669.657 807.718 670.412 806.575 670.29 805.309C670.229 803.941 668.942 803.043 667.942 802.879C666.88 802.634 665.941 802.716 665.042 802.757C663.245 802.879 661.652 803.226 660.366 803.635C657.793 804.472 656.425 805.493 656.486 805.595L656.507 805.574Z" fill="#263238"/>
<path d="M616.934 843.468C616.934 843.468 617.996 842.835 618.465 841.039C618.996 839.283 618.67 836.567 617.281 834.219C616.628 833.015 615.872 831.994 615.178 831.075C614.484 830.156 613.769 829.34 613.034 828.788C612.299 828.217 611.543 827.972 611.033 827.951C610.502 827.931 610.236 828.053 610.236 828.115C610.236 828.278 611.359 828.196 612.523 829.381C613.115 829.952 613.708 830.728 614.341 831.667C614.994 832.606 615.688 833.627 616.301 834.73C617.567 836.955 617.955 839.242 617.689 840.875C617.465 842.509 616.771 843.366 616.913 843.468H616.934Z" fill="#263238"/>
<path d="M639.539 826.583C639.825 826.604 639.743 823.419 637.313 820.56C634.924 817.661 631.8 817.008 631.779 817.294C631.657 817.6 634.312 818.641 636.456 821.255C638.64 823.827 639.192 826.645 639.518 826.563L639.539 826.583Z" fill="#263238"/>
<path d="M684.685 815.415C684.685 815.415 683.664 816.069 681.928 817.314C680.152 818.539 677.558 820.254 674.169 822.071C670.779 823.888 666.613 825.767 661.835 827.563C657.078 829.34 651.728 831.014 646.071 832.647C634.759 835.914 624.508 838.895 617.096 841.12C613.543 842.202 610.603 843.121 608.357 843.795C606.294 844.448 605.171 844.857 605.192 844.918C605.212 845 606.376 844.734 608.479 844.203C610.766 843.591 613.727 842.815 617.321 841.855C624.774 839.814 635.045 836.976 646.378 833.709C652.034 832.076 657.404 830.361 662.182 828.503C666.961 826.645 671.147 824.664 674.516 822.745C677.885 820.826 680.458 818.988 682.153 817.641C683.827 816.273 684.705 815.456 684.664 815.395L684.685 815.415Z" fill="#263238"/>
<path d="M687.013 816.252C687.054 816.13 685.052 815.395 681.683 814.844C678.355 814.313 673.311 814.047 668.451 816.457C666.042 817.641 664.143 819.478 662.795 821.316C661.427 823.174 660.529 825.011 659.855 826.583C658.527 829.728 657.976 831.769 658.099 831.81C658.262 831.871 659.079 829.932 660.569 826.91C662.06 823.99 664.429 819.703 668.962 817.437C673.495 815.191 678.294 815.293 681.581 815.599C684.909 815.946 686.972 816.416 687.013 816.232V816.252Z" fill="#263238"/>
<path d="M798.524 689.728C798.524 689.728 817.412 696.466 817.474 717.638C817.617 758.186 735.551 802.879 735.551 802.879L626.327 730.501L619.486 727.724C619.486 727.724 766.935 672.333 798.545 689.708L798.524 689.728Z" fill="#263238"/>
<path d="M681.643 767.068C681.643 767.068 682.705 766.435 684.482 765.149C686.279 763.842 688.831 761.923 691.955 759.513C698.204 754.675 706.718 747.835 715.866 739.974C725.014 732.114 733.08 724.743 738.797 719.292C741.656 716.576 743.943 714.331 745.495 712.759C747.047 711.186 747.884 710.288 747.823 710.247C747.762 710.186 746.843 710.982 745.189 712.452C743.412 714.065 741.064 716.168 738.246 718.72C732.386 724.008 724.259 731.297 715.111 739.137C705.963 746.977 697.55 753.919 691.424 758.901C688.484 761.31 686.034 763.291 684.175 764.822C682.46 766.231 681.541 767.027 681.602 767.088L681.643 767.068Z" fill="#455A64"/>
<path d="M767.691 704.898C767.732 704.632 762.851 704.142 757.175 705.858C751.457 707.511 747.639 710.574 747.823 710.778C748.007 711.064 751.988 708.532 757.502 706.94C762.994 705.286 767.711 705.265 767.711 704.918L767.691 704.898Z" fill="#455A64"/>
<path d="M758.277 698.507C758.175 698.242 754.684 699.794 751.804 703.387C748.905 706.96 748.129 710.696 748.415 710.737C748.741 710.839 749.926 707.45 752.682 704.081C755.398 700.692 758.461 698.793 758.298 698.507H758.277Z" fill="#455A64"/>
<path d="M804.527 826.869C804.588 826.747 803.22 826.481 801.709 827.727C800.219 828.911 798.953 831.3 798.544 834.056C798.136 836.853 798.748 839.426 799.545 841.039C800.321 842.692 801.158 843.468 801.26 843.407C801.403 843.305 800.811 842.386 800.28 840.753C799.729 839.14 799.279 836.772 799.647 834.219C800.014 831.667 801.056 829.462 802.24 828.298C803.404 827.094 804.548 827.033 804.527 826.869Z" fill="#263238"/>
<path d="M773.407 623.495L734.488 722.109L566.966 724.825L563.883 715.78L622.589 713.636L650.809 626.17L773.407 623.495Z" fill="#455A64"/>
<path d="M695.16 666.187C697.304 664.738 701.286 665.309 703.226 667.045C705.166 668.78 705.778 671.781 704.798 674.191C703.818 676.6 701.347 678.274 698.754 678.417C695.997 678.56 693.118 676.845 692.362 674.191C691.607 671.536 692.444 667.596 695.18 666.187" fill="#EBEBEB"/>
<path d="M745.882 807.8C745.882 807.8 591.552 706.572 585.222 704.469C578.912 702.366 563.638 692.362 548.365 696.568C533.091 700.774 519.41 714.473 512.549 734.482C508.628 745.916 506.791 765.414 505.933 780.053C504.892 797.55 510.303 814.987 521.758 828.258C526.965 834.301 533.377 839.548 540.993 841.917C542.606 842.407 544.26 842.856 545.976 843.223C575.155 849.553 605.151 836.445 621.528 811.495L625.121 806.023C625.121 806.023 726.075 843.101 727.668 842.59L745.862 807.82L745.882 807.8Z" fill="#263238"/>
<path d="M554.961 779.951C554.961 779.951 555.247 780.094 555.798 780.318C556.411 780.563 557.248 780.89 558.33 781.319C560.617 782.197 563.884 783.463 568.111 785.076C576.687 788.301 589.082 792.977 604.478 798.775C619.915 804.533 638.436 811.393 659.182 818.947C679.949 826.481 702.941 834.771 727.526 843.101L727.975 843.244L728.2 842.815C732.059 835.444 736.123 827.686 740.247 819.785C742.351 815.762 744.433 811.761 746.394 808.045L746.639 807.596L746.21 807.33C699.858 777.909 658.406 751.592 628.492 732.604C613.544 723.171 601.497 715.576 593.125 710.308C588.98 707.715 585.754 705.715 583.528 704.306C582.466 703.652 581.629 703.142 581.016 702.775C580.444 702.427 580.138 702.285 580.138 702.285C580.138 702.285 580.404 702.489 580.955 702.877C581.547 703.265 582.364 703.816 583.405 704.51C585.611 705.939 588.796 708.022 592.9 710.676C601.231 716.025 613.218 723.722 628.083 733.278C657.957 752.347 699.347 778.767 745.618 808.29L745.434 807.575C743.474 811.312 741.391 815.293 739.288 819.315C735.163 827.196 731.099 834.975 727.24 842.345L727.914 842.08C703.349 833.791 680.337 825.542 659.57 818.049C638.824 810.495 620.283 803.757 604.784 798.122C589.347 792.467 576.912 787.893 568.315 784.749C564.068 783.197 560.76 781.993 558.453 781.156C557.35 780.768 556.513 780.461 555.9 780.257C555.328 780.053 555.022 779.971 555.022 779.971L554.961 779.951Z" fill="#455A64"/>
<path d="M570.969 420.489C573.603 413.384 579.423 410.28 586.794 408.504C594.166 406.728 602.375 408.831 607.969 413.955C611.706 417.385 614.442 422.122 619.078 424.205C626.694 427.655 636.434 422.612 643.642 426.838C647.91 429.329 650.013 435.005 648.38 439.681C646.746 444.356 641.58 447.5 636.7 446.806C641.662 449.154 642.581 456.606 639.17 460.894C635.76 465.182 629.451 466.345 624.162 464.855C618.894 463.364 614.504 459.689 610.787 455.667C607.051 451.645 603.804 447.194 599.761 443.478C595.718 439.762 590.695 436.782 585.222 436.577C577.81 436.292 570.969 441.294 567.069 447.603C563.169 453.911 561.719 461.404 560.637 468.755C559.555 476.105 558.738 483.577 555.9 490.437C555.573 491.234 555.083 492.132 554.246 492.316C553.021 492.581 552.102 491.213 551.612 490.05C546.037 476.983 543.056 462.793 542.913 448.583C542.831 440.334 543.75 432.596 548.875 426.144C554.001 419.672 565.824 415.65 571.01 420.489" fill="#263238"/>
<path d="M553.572 453.442L542.219 535.886C540.299 549.912 550.489 562.693 564.578 563.918C577.728 565.062 589.49 555.67 591.266 542.603C592.124 536.396 592.839 531.231 592.961 530.598C592.961 530.598 614.218 531.516 618.588 510.957C620.691 501.013 623.386 480.188 625.592 461.343C627.96 441.089 614.361 422.408 594.35 418.406L592.369 418.018C570.663 414.976 555.981 431.718 553.531 453.483L553.572 453.442Z" fill="#FFBE9D"/>
<path d="M593.063 530.271C593.063 530.271 579.831 528.719 567.723 517.265C567.723 517.265 571.112 533.374 592.063 535.62L593.084 530.271H593.063Z" fill="#EB996E"/>
<path d="M552.205 469.04C551.878 468.816 538.871 462.017 536.502 476.207C534.133 490.397 548.856 489.845 548.958 489.437C549.06 489.029 552.205 469.04 552.205 469.04Z" fill="#FFBE9D"/>
<path d="M545.528 483.332C545.528 483.332 545.243 483.455 544.793 483.577C544.365 483.7 543.629 483.7 542.935 483.312C541.526 482.516 540.669 479.923 541.016 477.35C541.2 476.043 541.669 474.859 542.302 473.92C542.915 472.96 543.691 472.348 544.487 472.328C545.263 472.287 545.733 472.818 545.835 473.246C545.957 473.675 545.835 473.94 545.896 473.981C545.937 474.022 546.243 473.798 546.223 473.185C546.223 472.899 546.1 472.532 545.814 472.205C545.528 471.878 545.038 471.654 544.507 471.613C543.405 471.511 542.241 472.348 541.567 473.389C540.812 474.41 540.26 475.737 540.056 477.207C539.668 480.086 540.689 483.006 542.629 483.924C543.589 484.353 544.467 484.19 544.957 483.924C545.447 483.639 545.59 483.353 545.528 483.312V483.332Z" fill="#EB996E"/>
<path d="M630.841 457.893C621.284 458.505 611.524 454.156 605.582 446.643C601.416 441.396 598.762 434.495 592.881 431.31C588.92 429.166 584.019 429.146 579.731 430.493C575.422 431.861 571.645 434.495 568.235 437.476C570.134 448.746 565.11 459.914 560.23 470.245C559.699 471.388 559.066 472.613 557.943 473.165C556.024 474.104 553.716 472.613 552.573 470.796C550.735 467.897 550.511 464.283 550.592 460.853C550.756 453.033 552.124 445.173 555.289 438.027C558.474 430.881 563.518 424.47 570.113 420.264C578.363 415.017 588.777 413.527 598.333 415.589C607.889 417.651 616.568 423.123 623.061 430.432C626.083 433.821 628.697 437.721 629.718 442.131" fill="#263238"/>
<path d="M59.3803 790.466C59.3803 790.466 59.4824 790.159 59.7479 789.608C60.0337 788.996 60.4217 788.179 60.9118 787.138C61.8919 784.953 63.1783 781.666 64.3014 777.256C66.5476 768.477 67.3439 755.063 64.0155 739.117C62.4637 731.134 59.9725 722.579 56.9504 713.514C53.9487 704.428 50.4774 694.771 47.6391 684.358C44.8212 673.966 42.6159 662.675 43.0447 650.834C43.4735 638.971 46.9857 627.129 50.845 615.349C54.7043 603.548 58.6861 592.012 59.8704 580.415C61.2181 568.839 58.7473 557.467 53.4587 548.136C48.3538 538.724 41.9217 530.659 37.1027 522.329C32.2224 514.019 29.1595 505.464 27.2809 497.522C23.6258 481.495 24.9122 467.979 26.6479 459.077C28.5469 450.134 30.6501 445.5 30.6501 445.5C30.6501 445.5 30.5888 445.806 30.4051 446.398C30.2009 447.031 29.9354 447.909 29.5883 448.991C28.8736 451.278 27.9547 454.687 27.0971 459.159C25.5044 468.04 24.3609 481.454 28.0977 497.318C30.0171 505.179 33.08 513.611 37.9603 521.818C42.7589 530.067 49.2114 538.07 54.4388 547.605C59.8296 557.017 62.4228 568.757 61.0547 580.538C59.85 592.339 55.8477 603.956 51.9885 615.737C48.1292 627.517 44.6579 639.216 44.2291 650.874C43.8003 662.533 45.9443 673.701 48.7213 684.052C51.5188 694.424 54.9493 704.081 57.9101 713.187C60.9118 722.293 63.3621 730.909 64.8732 738.953C68.1199 755.001 67.1806 768.558 64.7711 777.358C63.5459 781.768 62.1982 785.055 61.1364 787.219C60.6055 788.24 60.1767 789.037 59.8704 789.649C59.5845 790.2 59.4212 790.466 59.4007 790.445L59.3803 790.466Z" fill="#263238"/>
<path d="M43.6369 530.577C43.6369 530.577 33.856 499.339 51.3963 481.046C52.0089 480.413 53.0911 480.699 53.2545 481.576C54.1938 486.742 55.3577 502.463 43.6369 530.577Z" fill="#D36135"/>
<path d="M49.4965 491.438C49.6598 491.479 49.3739 493.663 48.843 497.195C48.21 501.156 47.4545 505.832 46.6173 510.977C45.8005 516.122 45.0654 520.798 44.4324 524.758C43.9015 528.291 43.5748 530.475 43.391 530.455C43.2277 530.455 43.2481 528.229 43.5748 524.656C43.9015 521.083 44.5345 516.183 45.4126 510.793C46.2906 505.403 47.2299 500.544 48.0058 497.053C48.7613 493.561 49.3535 491.417 49.5169 491.438H49.4965Z" fill="#263238"/>
<path d="M55.1113 604.262C55.1113 604.262 61.0942 572.065 85.1484 564.102C85.9856 563.816 86.8024 564.592 86.5369 565.45C84.9442 570.452 78.6346 584.887 55.1113 604.262Z" fill="#D36135"/>
<path d="M78.5941 572.412C78.7166 572.514 77.4506 574.331 75.3066 577.189C72.8766 580.395 70.0383 584.172 66.8937 588.337C63.7695 592.502 60.9312 596.279 58.5217 599.505C56.3981 602.384 55.0913 604.16 54.9483 604.058C54.8054 603.977 55.8672 602.017 57.8275 599.015C59.7877 596.014 62.6465 591.971 65.934 587.623C69.242 583.274 72.3457 579.415 74.6531 576.679C76.9605 573.943 78.4716 572.33 78.6145 572.432L78.5941 572.412Z" fill="#263238"/>
<path d="M48.6185 685.012C48.6185 685.012 44.9838 652.467 65.6892 637.869C66.4243 637.358 67.4248 637.869 67.4044 638.747C67.3431 643.994 65.485 659.633 48.6185 685.012Z" fill="#D36135"/>
<path d="M61.83 647.73C61.9934 647.791 61.2991 649.894 60.0944 653.263C58.7058 657.04 57.0723 661.471 55.2754 666.371C53.4989 671.271 51.8653 675.702 50.4972 679.479C49.2924 682.848 48.5573 684.93 48.394 684.889C48.2511 684.848 48.6799 682.664 49.6804 679.213C50.681 675.763 52.2329 671.067 54.1319 665.942C56.0309 660.818 57.8686 656.224 59.298 652.937C60.7069 649.649 61.6871 647.649 61.8504 647.73H61.83Z" fill="#263238"/>
<path d="M66.7308 766.251C66.7308 766.251 64.26 733.604 85.4758 719.741C86.211 719.251 87.2115 719.802 87.1707 720.68C86.9256 725.927 84.5161 741.485 66.7308 766.251Z" fill="#D36135"/>
<path d="M81.2692 729.439C81.4326 729.5 80.6566 731.583 79.3294 734.911C77.7979 738.627 76.0214 742.996 74.0407 747.835C72.0804 752.674 70.3039 757.043 68.7929 760.759C67.4656 764.066 66.6693 766.129 66.5059 766.088C66.363 766.047 66.8735 763.883 67.9965 760.473C69.1196 757.063 70.8349 752.429 72.9176 747.365C75.0004 742.322 77.0015 737.79 78.533 734.564C80.0645 731.338 81.1059 729.378 81.2692 729.439Z" fill="#263238"/>
<path d="M29.5878 503.116C29.5878 503.116 0.571746 487.967 0 462.65C0 461.752 0.959716 461.2 1.69482 461.711C6.00333 464.692 17.9691 474.961 29.5878 503.137V503.116Z" fill="#D36135"/>
<path d="M6.02344 471.348C6.16637 471.245 7.51406 473.001 9.63769 475.88C11.9859 479.147 14.763 482.965 17.8259 487.191C20.8888 491.417 23.6659 495.215 26.0345 498.482C28.1582 501.361 29.4854 503.116 29.3425 503.239C29.22 503.341 27.6681 501.769 25.3607 499.013C23.0533 496.256 20.0312 492.357 16.8458 487.906C13.6603 483.475 10.8833 479.371 8.94342 476.37C7.00357 473.369 5.90092 471.429 6.04386 471.348H6.02344Z" fill="#263238"/>
<path d="M60.7483 570.227C60.7483 570.227 30.8542 556.854 28.751 531.619C28.6693 530.741 29.629 530.128 30.3845 530.577C34.8768 533.293 47.4348 542.828 60.7483 570.227Z" fill="#D36135"/>
<path d="M35.3054 539.928C35.4483 539.826 36.8981 541.5 39.1851 544.236C41.7375 547.34 44.7392 550.994 48.0472 555.037C51.3755 559.059 54.3772 562.693 56.9296 565.797C59.2166 568.533 60.646 570.227 60.5235 570.35C60.4009 570.452 58.747 568.982 56.2966 566.368C53.8259 563.755 50.5792 560.039 47.1079 555.813C43.657 551.586 40.6349 547.666 38.5113 544.767C36.3876 541.888 35.1829 540.03 35.3054 539.928Z" fill="#263238"/>
<path d="M43.5554 645.076C43.5554 645.076 23.0338 619.575 32.6514 596.136C32.9985 595.32 34.1012 595.197 34.5708 595.953C37.3274 600.404 44.168 614.614 43.535 645.076H43.5554Z" fill="#D36135"/>
<path d="M34.6931 606.508C34.8565 606.488 35.4078 608.632 36.1838 612.123C37.0414 616.063 38.0419 620.678 39.1446 625.762C40.2677 630.845 41.2886 635.46 42.1463 639.38C42.9426 642.851 43.4327 645.015 43.2693 645.076C43.1264 645.117 42.33 643.055 41.3091 639.604C40.3085 636.154 39.1038 631.356 37.9398 626.027C36.7964 620.678 35.8979 615.818 35.3262 612.286C34.7544 608.754 34.5094 606.549 34.6727 606.508H34.6931Z" fill="#263238"/>
<path d="M63.8916 733.155C63.8916 733.155 34.2221 719.292 32.5477 694.016C32.4865 693.138 33.4462 692.525 34.2017 693.015C38.6327 695.812 51.0274 705.551 63.8916 733.176V733.155Z" fill="#D36135"/>
<path d="M38.9395 702.448C39.0824 702.346 40.5118 704.04 42.7579 706.817C45.2491 709.961 48.1895 713.677 51.4362 717.761C54.6829 721.844 57.6233 725.519 60.1349 728.663C62.381 731.44 63.7696 733.155 63.647 733.278C63.5245 733.38 61.891 731.869 59.4815 729.235C57.072 726.581 53.8661 722.804 50.4765 718.516C47.0868 714.229 44.1464 710.268 42.0841 707.328C40.0217 704.408 38.8169 702.53 38.9599 702.427L38.9395 702.448Z" fill="#263238"/>
<path d="M122.967 604.446C122.967 604.446 123.007 604.691 123.007 605.161C123.007 605.732 122.967 606.427 122.946 607.264C122.865 609.224 122.742 611.878 122.599 615.206C122.211 622.189 121.68 631.907 121.047 643.545V643.606C118.924 655.448 112.9 668.576 104.793 681.337C98.8512 690.729 92.6233 699.263 87.2325 707.205C81.8214 715.127 77.2474 722.457 74.0824 728.949C70.8765 735.442 69.0183 741.016 67.9361 744.915C67.4052 746.875 67.0172 748.386 66.7926 749.448C66.5476 750.489 66.4047 751.04 66.3638 751.02C66.323 751.02 66.3842 750.448 66.5476 749.387C66.6905 748.325 67.0172 746.773 67.4665 744.793C68.4262 740.832 70.1823 735.176 73.3064 728.582C76.4102 721.987 80.9433 714.555 86.3137 706.572C91.6431 698.569 97.8507 690.034 103.772 680.683C111.838 668.004 117.841 655.06 120.026 643.402V643.463C120.843 631.825 121.517 622.107 122.007 615.145C122.272 611.837 122.497 609.183 122.64 607.223C122.722 606.386 122.783 605.712 122.844 605.14C122.905 604.671 122.946 604.426 122.967 604.426V604.446Z" fill="#263238"/>
<path d="M105.303 678.907C105.303 678.907 117.861 648.669 102.056 628.865C101.505 628.171 100.402 628.375 100.157 629.232C98.7484 634.296 96.1755 649.833 105.303 678.907Z" fill="#D36135"/>
<path d="M103.016 639.4C103.18 639.4 103.568 641.564 104.017 645.117C104.466 648.669 104.956 653.59 105.344 659.041C105.732 664.493 105.916 669.434 105.916 673.027C105.916 676.62 105.732 678.825 105.569 678.825C105.385 678.825 105.263 676.62 105.058 673.047C104.793 669.046 104.466 664.329 104.119 659.123C103.752 653.917 103.425 649.2 103.139 645.199C102.914 641.626 102.833 639.421 102.996 639.4H103.016Z" fill="#263238"/>
<g opacity="0.3">
<path d="M105.303 678.907C105.303 678.907 117.861 648.669 102.056 628.865C101.505 628.171 100.402 628.375 100.157 629.232C98.7484 634.296 96.1755 649.833 105.303 678.907Z" fill="black"/>
</g>
<path d="M66.4041 751.755C66.4041 751.755 76.4709 720.599 59.1143 702.142C58.5017 701.488 57.4195 701.795 57.2561 702.652C56.276 707.797 54.9487 723.498 66.4041 751.755Z" fill="#D36135"/>
<path d="M60.9102 712.575C61.0736 712.534 61.6453 714.698 62.36 718.189C63.0951 721.701 63.9936 726.56 64.8104 731.951C65.6476 737.341 66.2193 742.261 66.5256 745.834C66.8115 749.407 66.8115 751.633 66.6481 751.653C66.4643 751.653 66.1785 749.468 65.668 745.936C65.0758 741.955 64.3816 737.3 63.6056 732.134C62.8297 726.969 62.115 722.314 61.5024 718.332C60.9919 714.8 60.7265 712.595 60.8898 712.554L60.9102 712.575Z" fill="#263238"/>
<g opacity="0.3">
<path d="M66.4041 751.755C66.4041 751.755 76.4709 720.599 59.1143 702.142C58.5017 701.488 57.4195 701.795 57.2561 702.652C56.276 707.797 54.9487 723.498 66.4041 751.755Z" fill="black"/>
</g>
<path d="M121.291 641.952C121.291 641.952 148.122 623.169 145.406 597.994C145.304 597.116 144.263 596.688 143.61 597.28C139.709 600.792 129.193 612.531 121.291 641.952Z" fill="#D36135"/>
<g opacity="0.3">
<path d="M121.291 641.952C121.291 641.952 148.122 623.169 145.406 597.994C145.304 597.116 144.263 596.688 143.61 597.28C139.709 600.792 129.193 612.531 121.291 641.952Z" fill="black"/>
</g>
<path d="M140.566 607.386C140.709 607.468 139.872 609.51 138.34 612.756C136.809 615.982 134.583 620.412 131.99 625.21C129.397 630.029 126.906 634.296 124.966 637.318C123.026 640.339 121.699 642.116 121.556 642.014C121.413 641.911 122.495 639.992 124.21 636.868C126.13 633.336 128.396 629.192 130.887 624.618C133.378 620.024 135.625 615.88 137.544 612.348C139.28 609.224 140.382 607.305 140.546 607.386H140.566Z" fill="#263238"/>
<path d="M77.2051 720.864C77.2051 720.864 109.55 715.821 118.228 692.015C118.534 691.178 117.779 690.341 116.921 690.586C111.877 692.035 97.257 697.915 77.2051 720.864Z" fill="#D36135"/>
<g opacity="0.3">
<path d="M77.2051 720.864C77.2051 720.864 109.55 715.821 118.228 692.015C118.534 691.178 117.779 690.341 116.921 690.586C111.877 692.035 97.257 697.915 77.2051 720.864Z" fill="black"/>
</g>
<path d="M109.732 698.324C109.834 698.467 108.181 699.916 105.363 702.162C102.565 704.388 98.6242 707.389 94.1727 710.553C89.7213 713.738 85.5966 716.474 82.5336 718.332C79.4707 720.19 77.49 721.191 77.4083 721.048C77.3062 720.884 79.144 719.639 82.064 717.597C85.3515 715.27 89.2108 712.554 93.4581 709.553C97.7053 706.531 101.565 703.795 104.832 701.468C107.752 699.426 109.61 698.201 109.712 698.324H109.732Z" fill="#263238"/>
<path d="M46.3518 780.4L36.918 843.918H95.7261L88.0892 780.4H46.3518Z" fill="#455A64"/>
<path d="M90.459 800.082C90.459 800.429 79.8408 800.695 66.752 800.695C53.6631 800.695 43.0449 800.429 43.0449 800.082C43.0449 799.735 53.6631 799.47 66.752 799.47C79.8408 799.47 90.459 799.735 90.459 800.082Z" fill="#263238"/>
<path d="M91.6222 805.125C91.6222 805.472 80.6569 805.738 67.1392 805.738C53.6215 805.738 42.6562 805.472 42.6562 805.125C42.6562 804.778 53.6215 804.513 67.1392 804.513C80.6569 804.513 91.6222 804.778 91.6222 805.125Z" fill="#263238"/>
</g>
<defs>
<clipPath id="clip0_525_393">
<rect width="883" height="846" fill="white"/>
</clipPath>
</defs>
</svg>
