<svg width="141" height="141" viewBox="0 0 141 141" fill="none" xmlns="http://www.w3.org/2000/svg">
<g clip-path="url(#clip0_0_292)">
<path d="M70.5005 141C67.3471 141 63.9685 140.775 60.5899 140.324C41.8951 137.846 25.4526 128.161 14.1906 113.07C2.92859 97.9791 -2.02668 79.5094 0.676198 60.8145C3.15383 42.1197 12.8391 25.6772 27.9302 14.4152C43.0212 3.1532 61.4909 -1.80207 80.1858 0.900807C98.8807 3.37844 115.323 13.0637 126.585 28.1548C137.847 43.2459 142.802 61.7155 140.1 80.4104C137.622 99.1053 127.937 115.548 112.846 126.81C100.683 136.045 85.8168 141 70.5005 141ZM70.5005 6.08132C38.9669 6.08132 11.2625 29.5062 6.75767 61.7155C4.50527 78.8337 8.78482 95.7267 19.1458 109.466C29.5069 123.206 44.5979 131.99 61.7161 134.468C78.8344 136.72 95.7273 132.441 109.467 122.08C123.207 111.719 131.991 96.6276 134.469 79.5094C136.721 62.3912 132.441 45.4983 122.08 31.7586C111.719 18.019 96.403 9.00943 79.2848 6.5318C76.3567 6.30656 73.4286 6.08132 70.5005 6.08132Z" fill="#96ADC8"/>
<path d="M70.5004 124.782C68.0228 124.782 65.5451 124.557 62.8423 124.332C48.4269 122.305 35.8135 114.872 27.0292 103.385C18.2448 91.6721 14.641 77.482 16.6682 63.0667C18.6953 48.6514 26.1282 36.038 37.6154 27.2536C49.1027 18.4693 63.518 14.8654 77.9333 16.6673C92.3487 18.6945 104.962 26.1274 113.746 37.6146C122.531 49.1019 126.135 63.5172 124.333 77.9325C122.306 92.3479 114.873 104.961 103.385 113.746C93.7001 120.953 82.2129 124.782 70.5004 124.782ZM70.5004 20.7217C46.1745 20.7217 24.7768 38.7408 21.1729 63.5172C19.371 76.5811 22.7496 89.645 30.8582 100.456C38.9669 111.043 50.4541 117.8 63.7432 119.602C76.8071 121.404 89.871 118.025 100.683 109.917C111.269 101.808 118.026 90.3207 119.828 77.0316C121.63 63.9677 118.251 50.9038 110.143 40.0923C102.034 29.506 90.5467 22.7488 77.2576 20.9469C75.0052 20.9469 72.7528 20.7217 70.5004 20.7217Z" fill="#0D703C"/>
<path d="M70.5005 104.286C68.9239 104.286 67.3472 104.286 65.7705 104.061C56.7609 102.709 48.8775 98.2044 43.4718 90.9967C38.066 83.789 35.8136 75.0047 36.9398 65.9951C38.2913 56.9855 42.7961 49.1021 50.0037 43.6964C57.2114 38.2906 65.9957 36.0382 75.0053 37.1644C84.0149 38.5159 91.8983 43.0207 97.3041 50.2283C102.71 57.436 104.962 66.2204 103.836 75.2299C102.485 84.2395 97.9798 92.1229 90.7721 97.5287C84.9159 101.808 77.9334 104.286 70.5005 104.286ZM70.5005 39.6421C55.4095 39.6421 42.1203 50.9041 39.8679 66.2203C38.7417 74.329 40.7689 82.4376 45.7242 89.1948C50.6794 95.7267 57.8871 100.006 66.221 101.132C74.3296 102.259 82.4382 100.232 89.1954 95.2763C95.7274 90.321 100.007 83.1133 101.133 74.7795C102.259 66.6708 100.232 58.5622 95.2769 51.805C90.3216 45.2731 83.114 40.9935 74.7801 39.8673C73.2034 39.6421 71.852 39.6421 70.5005 39.6421Z" fill="#D36135"/>
<path d="M70.5007 86.2665C69.825 86.2665 69.1493 86.2665 68.2483 86.0413C63.9687 85.3655 60.3649 83.3384 57.8873 79.9598C55.4096 76.5812 54.2834 72.5269 54.7339 68.2473C55.4096 63.9678 57.4368 60.3639 60.8154 57.8863C64.194 55.4087 68.2483 54.2825 72.5279 54.7329C76.8074 55.4087 80.4112 57.4358 82.8889 60.8144C85.3665 64.193 86.4927 68.2473 86.0422 72.5269C85.3665 76.8064 83.3394 80.4103 79.9608 82.8879C77.2579 85.1403 73.8793 86.2665 70.5007 86.2665ZM70.5007 56.0844C63.5183 56.0844 57.2116 61.2649 56.3106 68.4726C55.8601 72.3016 56.7611 76.1307 59.0135 79.0588C61.2659 82.2122 64.6445 84.0141 68.4735 84.6898C72.3026 85.1403 76.1317 84.2393 79.0598 81.9869C82.2132 79.7345 84.0151 76.3559 84.6908 72.5269C85.1413 68.6978 84.2403 64.8687 81.9879 61.9406C79.7355 58.7873 76.3569 56.9853 72.5279 56.3096C71.8521 56.0844 71.1764 56.0844 70.5007 56.0844Z" fill="#FFFDFD"/>
</g>
<defs>
<clipPath id="clip0_0_292">
<rect width="141" height="141" fill="white"/>
</clipPath>
</defs>
</svg>
