<svg width="141" height="142" viewBox="0 0 141 142" fill="none" xmlns="http://www.w3.org/2000/svg">
<g clip-path="url(#clip0_0_2867)">
<path d="M70.5005 141.427C67.3471 141.427 63.9685 141.202 60.5899 140.751C41.8951 138.274 25.4526 128.588 14.1906 113.497C2.92859 98.4063 -2.02668 79.9367 0.676198 61.2418C3.15383 42.5469 12.8391 26.1044 27.9302 14.8424C43.0212 3.58045 61.4909 -1.37482 80.1858 1.32805C98.8807 3.80569 115.323 13.491 126.585 28.582C137.847 43.6731 142.802 62.1427 140.1 80.8376C137.622 99.5325 127.937 115.975 112.846 127.237C100.683 136.472 85.8168 141.427 70.5005 141.427ZM70.5005 6.50856C38.9669 6.50856 11.2625 29.9335 6.75767 62.1427C4.50527 79.261 8.78482 96.1539 19.1458 109.894C29.5069 123.633 44.5979 132.418 61.7161 134.895C78.8344 137.148 95.7273 132.868 109.467 122.507C123.207 112.146 131.991 97.0549 134.469 79.9367C136.721 62.8185 132.441 45.9255 122.08 32.1859C111.719 18.4463 96.403 9.43668 79.2848 6.95904C76.3567 6.7338 73.4286 6.50856 70.5005 6.50856Z" fill="#96ADC8"/>
<path d="M70.5004 125.21C68.0228 125.21 65.5451 124.985 62.8423 124.759C48.4269 122.732 35.8135 115.299 27.0292 103.812C18.2448 92.0996 14.641 77.9095 16.6682 63.4942C18.6953 49.0789 26.1282 36.4654 37.6154 27.6811C49.1027 18.8968 63.518 15.2929 77.9333 17.0948C92.3487 19.122 104.962 26.5549 113.746 38.0421C122.531 49.5293 126.135 63.9447 124.333 78.36C122.306 92.7754 114.873 105.389 103.385 114.173C93.7001 121.381 82.2129 125.21 70.5004 125.21ZM70.5004 21.1492C46.1745 21.1492 24.7768 39.1683 21.1729 63.9447C19.371 77.0086 22.7496 90.0725 30.8582 100.884C38.9669 111.47 50.4541 118.227 63.7432 120.029C76.8071 121.831 89.871 118.453 100.683 110.344C111.269 102.235 118.026 90.7482 119.828 77.4591C121.63 64.3952 118.251 51.3313 110.143 40.5198C102.034 29.9335 90.5467 23.1763 77.2576 21.3744C75.0052 21.3744 72.7528 21.1492 70.5004 21.1492Z" fill="#0D703C"/>
<path d="M70.5005 104.713C68.9239 104.713 67.3472 104.713 65.7705 104.488C56.7609 103.136 48.8775 98.6316 43.4718 91.424C38.066 84.2163 35.8136 75.4319 36.9398 66.4224C38.2913 57.4128 42.7961 49.5294 50.0037 44.1236C57.2114 38.7179 65.9957 36.4655 75.0053 37.5917C84.0149 38.9431 91.8983 43.4479 97.3041 50.6556C102.71 57.8632 104.962 66.6476 103.836 75.6572C102.485 84.6668 97.9798 92.5501 90.7721 97.9559C84.9159 102.235 77.9334 104.713 70.5005 104.713ZM70.5005 40.0693C55.4095 40.0693 42.1203 51.3313 39.8679 66.6476C38.7417 74.7562 40.7689 82.8648 45.7242 89.622C50.6794 96.154 57.8871 100.434 66.221 101.56C74.3296 102.686 82.4382 100.659 89.1954 95.7035C95.7274 90.7482 100.007 83.5406 101.133 75.2067C102.259 67.0981 100.232 58.9894 95.2769 52.2323C90.3216 45.7003 83.114 41.4208 74.7801 40.2946C73.2034 40.0693 71.852 40.0693 70.5005 40.0693Z" fill="#D36135"/>
<path d="M70.5004 86.694C69.8247 86.694 69.149 86.694 68.2481 86.4687C63.9685 85.793 60.3647 83.7659 57.887 80.3873C55.4094 77.0087 54.2832 72.9544 54.7337 68.6748C55.4094 64.3953 57.4365 60.7914 60.8151 58.3138C64.1937 55.8362 68.2481 54.71 72.5276 55.1604C76.8072 55.8361 80.411 57.8633 82.8886 61.2419C85.3663 64.6205 86.4925 68.6748 86.042 72.9544C85.3663 77.2339 83.3391 80.8377 79.9605 83.3154C77.2576 85.5678 73.879 86.694 70.5004 86.694ZM70.5004 56.5119C63.518 56.5119 57.2113 61.6924 56.3104 68.9C55.8599 72.7291 56.7608 76.5582 59.0132 79.4863C61.2656 82.6397 64.6442 84.4416 68.4733 85.1173C72.3024 85.5678 76.1314 84.6668 79.0596 82.4144C82.2129 80.162 84.0148 76.7834 84.6905 72.9544C85.141 69.1253 84.2401 65.2962 81.9877 62.3681C79.7353 59.2147 76.3567 57.4128 72.5276 56.7371C71.8519 56.5119 71.1762 56.5119 70.5004 56.5119Z" fill="#FFFDFD"/>
</g>
<defs>
<clipPath id="clip0_0_2867">
<rect width="141" height="141" fill="white" transform="translate(0 0.427246)"/>
</clipPath>
</defs>
</svg>
