<svg width="141" height="141" viewBox="0 0 141 141" fill="none" xmlns="http://www.w3.org/2000/svg">
<g clip-path="url(#clip0_0_1311)">
<path d="M70.5005 141C67.3471 141 63.9685 140.775 60.5899 140.324C41.8951 137.846 25.4526 128.161 14.1906 113.07C2.92859 97.9791 -2.02668 79.5094 0.676198 60.8145C3.15383 42.1197 12.8391 25.6772 27.9302 14.4152C43.0212 3.1532 61.4909 -1.80207 80.1858 0.900807C98.8807 3.37844 115.323 13.0637 126.585 28.1548C137.847 43.2459 142.802 61.7155 140.1 80.4104C137.622 99.1053 127.937 115.548 112.846 126.81C100.683 136.045 85.8168 141 70.5005 141ZM70.5005 6.08132C38.9669 6.08132 11.2625 29.5062 6.75767 61.7155C4.50527 78.8337 8.78482 95.7267 19.1458 109.466C29.5069 123.206 44.5979 131.99 61.7161 134.468C78.8344 136.72 95.7273 132.441 109.467 122.08C123.207 111.719 131.991 96.6276 134.469 79.5094C136.721 62.3912 132.441 45.4983 122.08 31.7586C111.719 18.019 96.403 9.00943 79.2848 6.5318C76.3567 6.30656 73.4286 6.08132 70.5005 6.08132Z" fill="#96ADC8"/>
<path d="M70.5014 124.782C68.0238 124.782 65.5461 124.557 62.8432 124.332C48.4279 122.305 35.8145 114.872 27.0302 103.385C18.2458 91.6721 14.642 77.482 16.6691 63.0667C18.6963 48.6514 26.1292 36.038 37.6164 27.2536C49.1036 18.4693 63.519 14.8654 77.9343 16.6673C92.3496 18.6945 104.963 26.1274 113.747 37.6146C122.532 49.1019 126.136 63.5172 124.334 77.9325C122.307 92.3479 114.874 104.961 103.386 113.746C93.7011 120.953 82.2139 124.782 70.5014 124.782ZM70.5014 20.7217C46.1755 20.7217 24.7778 38.7408 21.1739 63.5172C19.372 76.5811 22.7506 89.645 30.8592 100.456C38.9678 111.043 50.4551 117.8 63.7442 119.602C76.8081 121.404 89.872 118.025 100.684 109.917C111.27 101.808 118.027 90.3207 119.829 77.0316C121.631 63.9677 118.252 50.9038 110.144 40.0923C102.035 29.506 90.5477 22.7488 77.2586 20.9469C75.0062 20.9469 72.7538 20.7217 70.5014 20.7217Z" fill="#0D703C"/>
<path d="M70.4996 104.286C68.9229 104.286 67.3462 104.286 65.7695 104.061C56.7599 102.709 48.8766 98.2044 43.4708 90.9967C38.065 83.789 35.8127 75.0047 36.9389 65.9951C38.2903 56.9855 42.7951 49.1021 50.0028 43.6964C57.2104 38.2906 65.9948 36.0382 75.0043 37.1644C84.0139 38.5159 91.8973 43.0207 97.3031 50.2283C102.709 57.436 104.961 66.2204 103.835 75.2299C102.484 84.2395 97.9788 92.1229 90.7711 97.5287C84.9149 101.808 77.9325 104.286 70.4996 104.286ZM70.4996 39.6421C55.4085 39.6421 42.1194 50.9041 39.867 66.2203C38.7408 74.329 40.7679 82.4376 45.7232 89.1948C50.6785 95.7267 57.8861 100.006 66.22 101.132C74.3286 102.259 82.4373 100.232 89.1944 95.2763C95.7264 90.321 100.006 83.1133 101.132 74.7795C102.258 66.6708 100.231 58.5622 95.2759 51.805C90.3206 45.2731 83.113 40.9935 74.7791 39.8673C73.2024 39.6421 71.851 39.6421 70.4996 39.6421Z" fill="#D36135"/>
<path d="M70.5007 86.2667C69.825 86.2667 69.1493 86.2667 68.2483 86.0415C63.9687 85.3658 60.3649 83.3386 57.8873 79.96C55.4096 76.5814 54.2834 72.5271 54.7339 68.2476C55.4096 63.968 57.4368 60.3642 60.8154 57.8865C64.194 55.4089 68.2483 54.2827 72.5279 54.7332C76.8074 55.4089 80.4112 57.4361 82.8889 60.8147C85.3665 64.1933 86.4927 68.2476 86.0422 72.5271C85.3665 76.8067 83.3394 80.4105 79.9608 82.8881C77.2579 85.1405 73.8793 86.2667 70.5007 86.2667ZM70.5007 56.0846C63.5183 56.0846 57.2116 61.2651 56.3106 68.4728C55.8601 72.3019 56.7611 76.1309 59.0135 79.0591C61.2659 82.2124 64.6445 84.0143 68.4735 84.6901C72.3026 85.1405 76.1317 84.2396 79.0598 81.9872C82.2132 79.7348 84.0151 76.3562 84.6908 72.5271C85.1413 68.698 84.2403 64.869 81.9879 61.9409C79.7355 58.7875 76.3569 56.9856 72.5279 56.3099C71.8521 56.0846 71.1764 56.0846 70.5007 56.0846Z" fill="#FFFDFD"/>
</g>
<defs>
<clipPath id="clip0_0_1311">
<rect width="141" height="141" fill="white"/>
</clipPath>
</defs>
</svg>
