<svg width="141" height="141" viewBox="0 0 141 141" fill="none" xmlns="http://www.w3.org/2000/svg">
<g clip-path="url(#clip0_0_806)">
<path d="M70.5005 141C67.3471 141 63.9685 140.775 60.5899 140.324C41.8951 137.846 25.4526 128.161 14.1906 113.07C2.92859 97.9791 -2.02668 79.5094 0.676198 60.8145C3.15383 42.1197 12.8391 25.6772 27.9302 14.4152C43.0212 3.1532 61.4909 -1.80207 80.1858 0.900807C98.8807 3.37844 115.323 13.0637 126.585 28.1548C137.847 43.2459 142.802 61.7155 140.1 80.4104C137.622 99.1053 127.937 115.548 112.846 126.81C100.683 136.045 85.8168 141 70.5005 141ZM70.5005 6.08132C38.9669 6.08132 11.2625 29.5062 6.75767 61.7155C4.50527 78.8337 8.78482 95.7267 19.1458 109.466C29.5069 123.206 44.5979 131.99 61.7161 134.468C78.8344 136.72 95.7273 132.441 109.467 122.08C123.207 111.719 131.991 96.6276 134.469 79.5094C136.721 62.3912 132.441 45.4983 122.08 31.7586C111.719 18.019 96.403 9.00943 79.2848 6.5318C76.3567 6.30656 73.4286 6.08132 70.5005 6.08132Z" fill="#96ADC8"/>
<path d="M70.5005 124.783C68.0228 124.783 65.5452 124.557 62.8423 124.332C48.427 122.305 35.8136 114.872 27.0292 103.385C18.2449 91.6724 14.6411 77.4823 16.6682 63.067C18.6954 48.6516 26.1283 36.0382 37.6155 27.2539C49.1027 18.4695 63.518 14.8657 77.9334 16.6676C92.3487 18.6947 104.962 26.1277 113.746 37.6149C122.531 49.1021 126.135 63.5174 124.333 77.9328C122.306 92.3481 114.873 104.962 103.385 113.746C93.7002 120.954 82.2129 124.783 70.5005 124.783ZM70.5005 20.7219C46.1746 20.7219 24.7768 38.7411 21.173 63.5174C19.3711 76.5813 22.7497 89.6452 30.8583 100.457C38.9669 111.043 50.4542 117.8 63.7433 119.602C76.8072 121.404 89.8711 118.025 100.683 109.917C111.269 101.808 118.026 90.321 119.828 77.0318C121.63 63.9679 118.251 50.904 110.143 40.0925C102.034 29.5063 90.5468 22.7491 77.2577 20.9471C75.0053 20.9471 72.7529 20.7219 70.5005 20.7219Z" fill="#0D703C"/>
<path d="M70.5005 104.286C68.9238 104.286 67.3471 104.286 65.7704 104.061C56.7609 102.709 48.8775 98.2043 43.4717 90.9966C38.066 83.789 35.8136 75.0046 36.9398 65.995C38.2912 56.9855 42.796 49.1021 50.0037 43.6963C57.2113 38.2906 65.9957 36.0382 75.0053 37.1644C84.0149 38.5158 91.8982 43.0206 97.304 50.2283C102.71 57.4359 104.962 66.2203 103.836 75.2299C102.484 84.2395 97.9797 92.1228 90.772 97.5286C84.9158 101.808 77.9334 104.286 70.5005 104.286ZM70.5005 39.642C55.4094 39.642 42.1203 50.904 39.8679 66.2203C38.7417 74.3289 40.7688 82.4375 45.7241 89.1947C50.6794 95.7267 57.8871 100.006 66.2209 101.132C74.3295 102.259 82.4382 100.231 89.1954 95.2762C95.7273 90.3209 100.007 83.1133 101.133 74.7794C102.259 66.6708 100.232 58.5621 95.2768 51.805C90.3216 45.273 83.1139 40.9935 74.78 39.8673C73.2034 39.642 71.8519 39.642 70.5005 39.642Z" fill="#D36135"/>
<path d="M70.5005 86.2666C69.8248 86.2666 69.149 86.2666 68.2481 86.0414C63.9685 85.3657 60.3647 83.3385 57.8871 79.9599C55.4094 76.5813 54.2832 72.527 54.7337 68.2474C55.4094 63.9679 57.4366 60.3641 60.8152 57.8864C64.1938 55.4088 68.2481 54.2826 72.5276 54.7331C76.8072 55.4088 80.411 57.4359 82.8887 60.8145C85.3663 64.1931 86.4925 68.2474 86.042 72.527C85.3663 76.8066 83.3391 80.4104 79.9605 82.888C77.2577 85.1404 73.8791 86.2666 70.5005 86.2666ZM70.5005 56.0845C63.518 56.0845 57.2113 61.265 56.3104 68.4727C55.8599 72.3018 56.7609 76.1308 59.0133 79.0589C61.2657 82.2123 64.6442 84.0142 68.4733 84.6899C72.3024 85.1404 76.1315 84.2395 79.0596 81.9871C82.2129 79.7347 84.0149 76.3561 84.6906 72.527C85.1411 68.6979 84.2401 64.8688 81.9877 61.9407C79.7353 58.7874 76.3567 56.9855 72.5276 56.3097C71.8519 56.0845 71.1762 56.0845 70.5005 56.0845Z" fill="#FFFDFD"/>
</g>
<defs>
<clipPath id="clip0_0_806">
<rect width="141" height="141" fill="white"/>
</clipPath>
</defs>
</svg>
