<svg width="141" height="141" viewBox="0 0 141 141" fill="none" xmlns="http://www.w3.org/2000/svg">
<g clip-path="url(#clip0_0_650)">
<path d="M70.5 141C67.3466 141 63.968 140.775 60.5895 140.324C41.8946 137.847 25.4521 128.161 14.1901 113.07C2.92811 97.9793 -2.02717 79.5097 0.67571 60.8148C3.15335 42.1199 12.8386 25.6774 27.9297 14.4154C43.0208 3.15345 61.4904 -1.80182 80.1853 0.901052C98.8802 3.37869 115.323 13.064 126.585 28.155C137.847 43.2461 142.802 61.7157 140.099 80.4106C137.621 99.1055 127.936 115.548 112.845 126.81C100.682 136.045 85.8163 141 70.5 141ZM70.5 6.08156C38.9664 6.08156 11.262 29.5065 6.75718 61.7157C4.50478 78.834 8.78434 95.7269 19.1454 109.467C29.5064 123.206 44.5974 131.991 61.7157 134.468C78.8339 136.721 95.7268 132.441 109.466 122.08C123.206 111.719 131.99 96.6279 134.468 79.5097C136.72 62.3915 132.441 45.4985 122.08 31.7589C111.719 18.0193 96.4025 9.00968 79.2843 6.53204C76.3562 6.3068 73.4281 6.08156 70.5 6.08156Z" fill="#96ADC8"/>
<path d="M70.4999 124.783C68.0223 124.783 65.5447 124.558 62.8418 124.332C48.4264 122.305 35.813 114.872 27.0287 103.385C18.2443 91.6726 14.6405 77.4825 16.6677 63.0672C18.6948 48.6519 26.1277 36.0384 37.615 27.2541C49.1022 18.4698 63.5175 14.8659 77.9328 16.6678C92.3482 18.695 104.962 26.1279 113.746 37.6151C122.53 49.1023 126.134 63.5177 124.332 77.933C122.305 92.3484 114.872 104.962 103.385 113.746C93.6996 120.954 82.2124 124.783 70.4999 124.783ZM70.4999 20.7221C46.1741 20.7221 24.7763 38.7413 21.1725 63.5177C19.3705 76.5816 22.7491 89.6455 30.8578 100.457C38.9664 111.043 50.4536 117.8 63.7427 119.602C76.8066 121.404 89.8705 118.026 100.682 109.917C111.268 101.808 118.025 90.3212 119.827 77.0321C121.629 63.9682 118.251 50.9043 110.142 40.0928C102.033 29.5065 90.5463 22.7493 77.2571 20.9474C75.0047 20.9474 72.7523 20.7221 70.4999 20.7221Z" fill="#0D703C"/>
<path d="M70.5 104.286C68.9234 104.286 67.3467 104.286 65.77 104.061C56.7604 102.709 48.877 98.2046 43.4713 90.997C38.0655 83.7893 35.8131 75.0049 36.9393 65.9953C38.2908 56.9858 42.7956 49.1024 50.0032 43.6966C57.2109 38.2909 65.9953 36.0385 75.0048 37.1647C84.0144 38.5161 91.8978 43.0209 97.3036 50.2286C102.709 57.4362 104.962 66.2206 103.836 75.2302C102.484 84.2398 97.9793 92.1231 90.7716 97.5289C84.9154 101.808 77.933 104.286 70.5 104.286ZM70.5 39.6423C55.409 39.6423 42.1199 50.9043 39.8675 66.2206C38.7413 74.3292 40.7684 82.4378 45.7237 89.195C50.679 95.727 57.8866 100.007 66.2205 101.133C74.3291 102.259 82.4377 100.232 89.1949 95.2765C95.7269 90.3212 100.006 83.1136 101.133 74.7797C102.259 66.6711 100.232 58.5624 95.2764 51.8053C90.3211 45.2733 83.1135 40.9938 74.7796 39.8676C73.2029 39.6423 71.8515 39.6423 70.5 39.6423Z" fill="#D36135"/>
<path d="M70.5002 86.267C69.8245 86.267 69.1488 86.267 68.2478 86.0417C63.9683 85.366 60.3644 83.3389 57.8868 79.9603C55.4092 76.5817 54.2829 72.5274 54.7334 68.2478C55.4091 63.9683 57.4363 60.3644 60.8149 57.8868C64.1935 55.4092 68.2478 54.2829 72.5274 54.7334C76.8069 55.4091 80.4107 57.4363 82.8884 60.8149C85.366 64.1935 86.4922 68.2478 86.0417 72.5274C85.366 76.8069 83.3389 80.4107 79.9603 82.8884C77.2574 85.1408 73.8788 86.267 70.5002 86.267ZM70.5002 56.0849C63.5178 56.0849 57.2111 61.2654 56.3101 68.473C55.8596 72.3021 56.7606 76.1312 59.013 79.0593C61.2654 82.2127 64.644 84.0146 68.473 84.6903C72.3021 85.1408 76.1312 84.2398 79.0593 81.9874C82.2127 79.735 84.0146 76.3564 84.6903 72.5274C85.1408 68.6983 84.2398 64.8692 81.9874 61.9411C79.735 58.7877 76.3564 56.9858 72.5274 56.3101C71.8516 56.0849 71.1759 56.0849 70.5002 56.0849Z" fill="#FFFDFD"/>
</g>
<defs>
<clipPath id="clip0_0_650">
<rect width="141" height="141" fill="white"/>
</clipPath>
</defs>
</svg>
