<svg width="141" height="141" viewBox="0 0 141 141" fill="none" xmlns="http://www.w3.org/2000/svg">
<g clip-path="url(#clip0_0_502)">
<path d="M70.5005 141C67.3471 141 63.9685 140.775 60.5899 140.324C41.8951 137.847 25.4526 128.161 14.1906 113.07C2.92859 97.9792 -2.02668 79.5096 0.676198 60.8147C3.15383 42.1198 12.8391 25.6773 27.9302 14.4153C43.0212 3.15333 61.4909 -1.80195 80.1858 0.90093C98.8807 3.37857 115.323 13.0639 126.585 28.1549C137.847 43.246 142.802 61.7156 140.1 80.4105C137.622 99.1054 127.937 115.548 112.846 126.81C100.683 136.045 85.8168 141 70.5005 141ZM70.5005 6.08144C38.9669 6.08144 11.2625 29.5064 6.75767 61.7156C4.50527 78.8338 8.78482 95.7268 19.1458 109.466C29.5069 123.206 44.5979 131.99 61.7161 134.468C78.8344 136.72 95.7273 132.441 109.467 122.08C123.207 111.719 131.991 96.6278 134.469 79.5096C136.721 62.3913 132.441 45.4984 122.08 31.7588C111.719 18.0191 96.403 9.00956 79.2848 6.53192C76.3567 6.30668 73.4286 6.08144 70.5005 6.08144Z" fill="#96ADC8"/>
<path d="M70.5004 124.783C68.0228 124.783 65.5451 124.558 62.8423 124.332C48.4269 122.305 35.8135 114.872 27.0292 103.385C18.2448 91.6725 14.641 77.4824 16.6682 63.0671C18.6953 48.6517 26.1282 36.0383 37.6154 27.254C49.1027 18.4696 63.518 14.8658 77.9333 16.6677C92.3487 18.6949 104.962 26.1278 113.746 37.615C122.531 49.1022 126.135 63.5176 124.333 77.9329C122.306 92.3482 114.873 104.962 103.385 113.746C93.7001 120.954 82.2129 124.783 70.5004 124.783ZM70.5004 20.722C46.1745 20.722 24.7768 38.7412 21.1729 63.5176C19.371 76.5815 22.7496 89.6453 30.8582 100.457C38.9669 111.043 50.4541 117.8 63.7432 119.602C76.8071 121.404 89.871 118.026 100.683 109.917C111.269 101.808 118.026 90.3211 119.828 77.0319C121.63 63.968 118.251 50.9041 110.143 40.0926C102.034 29.5064 90.5467 22.7492 77.2576 20.9473C75.0052 20.9473 72.7528 20.722 70.5004 20.722Z" fill="#0D703C"/>
<path d="M70.5005 104.286C68.9239 104.286 67.3472 104.286 65.7705 104.061C56.7609 102.709 48.8775 98.2045 43.4718 90.9968C38.066 83.7892 35.8136 75.0048 36.9398 65.9952C38.2913 56.9856 42.7961 49.1023 50.0037 43.6965C57.2114 38.2908 65.9957 36.0384 75.0053 37.1646C84.0149 38.516 91.8983 43.0208 97.3041 50.2285C102.71 57.4361 104.962 66.2205 103.836 75.2301C102.485 84.2396 97.9798 92.123 90.7721 97.5288C84.9159 101.808 77.9334 104.286 70.5005 104.286ZM70.5005 39.6422C55.4095 39.6422 42.1203 50.9042 39.8679 66.2205C38.7417 74.3291 40.7689 82.4377 45.7242 89.1949C50.6794 95.7269 57.8871 100.006 66.221 101.133C74.3296 102.259 82.4382 100.232 89.1954 95.2764C95.7274 90.3211 100.007 83.1134 101.133 74.7796C102.259 66.671 100.232 58.5623 95.2769 51.8051C90.3216 45.2732 83.114 40.9936 74.7801 39.8674C73.2034 39.6422 71.852 39.6422 70.5005 39.6422Z" fill="#D36135"/>
<path d="M70.5007 86.2667C69.825 86.2667 69.1493 86.2667 68.2483 86.0415C63.9687 85.3658 60.3649 83.3386 57.8873 79.96C55.4096 76.5814 54.2834 72.5271 54.7339 68.2476C55.4096 63.968 57.4368 60.3642 60.8154 57.8865C64.194 55.4089 68.2483 54.2827 72.5279 54.7332C76.8074 55.4089 80.4112 57.4361 82.8889 60.8147C85.3665 64.1933 86.4927 68.2476 86.0422 72.5271C85.3665 76.8067 83.3394 80.4105 79.9608 82.8881C77.2579 85.1405 73.8793 86.2667 70.5007 86.2667ZM70.5007 56.0846C63.5183 56.0846 57.2116 61.2651 56.3106 68.4728C55.8601 72.3019 56.7611 76.1309 59.0135 79.0591C61.2659 82.2124 64.6445 84.0143 68.4735 84.6901C72.3026 85.1405 76.1317 84.2396 79.0598 81.9872C82.2132 79.7348 84.0151 76.3562 84.6908 72.5271C85.1413 68.698 84.2403 64.869 81.9879 61.9409C79.7355 58.7875 76.3569 56.9856 72.5279 56.3099C71.8521 56.0846 71.1764 56.0846 70.5007 56.0846Z" fill="#FFFDFD"/>
</g>
<defs>
<clipPath id="clip0_0_502">
<rect width="141" height="141" fill="white"/>
</clipPath>
</defs>
</svg>
