<svg width="86" height="86" viewBox="0 0 86 86" fill="none" xmlns="http://www.w3.org/2000/svg">
<g filter="url(#filter0_d_740_908)">
<circle cx="43" cy="43" r="26" fill="white"/>
</g>
<path d="M31 49.886C33.6911 50.0387 36.0443 49.4044 38.3392 47.7247C36.021 47.3253 34.4133 46.2564 33.5396 44.0481C34.2153 43.9541 34.8094 44.1303 35.5084 43.8484C33.2251 42.8382 31.7456 41.3229 31.6873 38.7034C32.4096 38.7622 32.9571 39.2438 33.8192 39.1733C31.7223 37.1059 31.0815 34.8506 32.3979 32.1137C34.5881 34.6509 37.151 36.3776 40.2847 37.1881C40.4595 37.2351 40.6226 37.2821 40.7973 37.3174C41.6011 37.5053 42.5564 37.9047 43.0457 37.8459C43.8844 37.7402 43.0457 36.7653 43.2554 35.4967C43.9194 31.5499 48.2297 29.7527 51.4217 32.0667C52.3537 32.748 53.0876 32.7363 54.0079 32.3251C54.4856 32.1137 54.9748 31.9023 55.5457 31.6556C55.4175 32.7832 54.5555 33.4058 53.8681 34.2398C54.6487 34.416 55.2777 34.1928 56 33.9579C55.7554 34.7684 55.1496 35.2265 54.6021 35.6729C54.0312 36.131 53.8099 36.6126 53.7866 37.3643C53.4371 48.7466 40.6109 57.5447 31.8388 50.5438C30.9884 49.8625 31.8155 50.5438 31 49.886Z" fill="#0D703C"/>
<defs>
<filter id="filter0_d_740_908" x="0" y="0" width="86" height="86" filterUnits="userSpaceOnUse" color-interpolation-filters="sRGB">
<feFlood flood-opacity="0" result="BackgroundImageFix"/>
<feColorMatrix in="SourceAlpha" type="matrix" values="0 0 0 0 0 0 0 0 0 0 0 0 0 0 0 0 0 0 127 0" result="hardAlpha"/>
<feMorphology radius="2" operator="dilate" in="SourceAlpha" result="effect1_dropShadow_740_908"/>
<feOffset/>
<feGaussianBlur stdDeviation="7.5"/>
<feComposite in2="hardAlpha" operator="out"/>
<feColorMatrix type="matrix" values="0 0 0 0 0 0 0 0 0 0 0 0 0 0 0 0 0 0 0.1 0"/>
<feBlend mode="normal" in2="BackgroundImageFix" result="effect1_dropShadow_740_908"/>
<feBlend mode="normal" in="SourceGraphic" in2="effect1_dropShadow_740_908" result="shape"/>
</filter>
</defs>
</svg>
