<svg width="86" height="86" viewBox="0 0 86 86" fill="none" xmlns="http://www.w3.org/2000/svg">
<g filter="url(#filter0_d_740_906)">
<circle cx="43" cy="43" r="26" fill="white"/>
</g>
<path d="M53.2517 37.3699C52.6926 36.1348 51.8902 35.0259 50.8713 34.0702C49.8525 33.1236 48.6713 32.3753 47.3549 31.8524C45.9935 31.3115 44.5508 31.041 43.0631 31.041C41.5754 31.041 40.1328 31.3115 38.7713 31.8524C37.4549 32.3753 36.2738 33.1146 35.2549 34.0702C34.2361 35.0259 33.4336 36.1348 32.8746 37.3699C32.2976 38.6501 32 40.0205 32 41.4269C32 43.8882 32.9197 46.2503 34.6057 48.1255L33.7041 53.039L38.5008 50.9023C39.9344 51.5153 41.4582 51.8219 43.0541 51.8219C44.5418 51.8219 45.9844 51.5514 47.3459 51.0105C48.6623 50.4876 49.8435 49.7483 50.8623 48.7926C51.8812 47.837 52.6836 46.7281 53.2426 45.493C53.8197 44.2127 54.1172 42.8424 54.1172 41.436C54.1263 40.0205 53.8287 38.6592 53.2517 37.3699Z" fill="#0D703C"/>
<path d="M47.5535 43.4995C47.0846 43.2651 46.742 43.1208 46.4986 43.0307C46.3453 42.9766 45.9846 42.8143 45.8584 42.9135C45.4617 43.238 45.0379 44.1576 44.5871 44.3289C43.469 44.1125 42.4322 43.3462 41.6207 42.5619C41.26 42.2193 40.5928 41.2456 40.4486 40.9841C40.4215 40.7137 40.9084 40.3531 41.0166 40.1457C41.5756 39.5146 41.1518 39.1179 41.0797 38.8565C40.9535 38.586 40.7371 38.0992 40.5477 37.7025C40.3854 37.441 40.3493 37.0534 40.0608 36.9091C38.8346 36.278 38.1313 37.5402 37.8428 38.1983C36.1027 42.3906 46.5617 50.3693 48.6895 44.8699C48.7977 44.392 48.7526 44.2117 48.5903 43.9953C48.2657 43.77 47.8871 43.6708 47.5535 43.4995Z" fill="white"/>
<defs>
<filter id="filter0_d_740_906" x="0" y="0" width="86" height="86" filterUnits="userSpaceOnUse" color-interpolation-filters="sRGB">
<feFlood flood-opacity="0" result="BackgroundImageFix"/>
<feColorMatrix in="SourceAlpha" type="matrix" values="0 0 0 0 0 0 0 0 0 0 0 0 0 0 0 0 0 0 127 0" result="hardAlpha"/>
<feMorphology radius="2" operator="dilate" in="SourceAlpha" result="effect1_dropShadow_740_906"/>
<feOffset/>
<feGaussianBlur stdDeviation="7.5"/>
<feComposite in2="hardAlpha" operator="out"/>
<feColorMatrix type="matrix" values="0 0 0 0 0 0 0 0 0 0 0 0 0 0 0 0 0 0 0.1 0"/>
<feBlend mode="normal" in2="BackgroundImageFix" result="effect1_dropShadow_740_906"/>
<feBlend mode="normal" in="SourceGraphic" in2="effect1_dropShadow_740_906" result="shape"/>
</filter>
</defs>
</svg>
