<svg width="15" height="15" viewBox="0 0 15 15" fill="none" xmlns="http://www.w3.org/2000/svg">
<path d="M1.7206 0.305521C1.62828 0.209938 1.51785 0.133698 1.39576 0.0812487C1.27366 0.0287997 1.14234 0.00119248 1.00946 3.77855e-05C0.876578 -0.00111691 0.744798 0.0242041 0.621808 0.0745233C0.498818 0.124842 0.387081 0.199152 0.293116 0.293116C0.199152 0.387081 0.124842 0.498818 0.0745233 0.621808C0.0242041 0.744798 -0.00111691 0.876578 3.77855e-05 1.00946C0.00119248 1.14234 0.0287997 1.27366 0.0812487 1.39576C0.133698 1.51785 0.209938 1.62828 0.305521 1.7206L6.08492 7.5L0.305521 13.2794C0.123224 13.4681 0.0223528 13.7209 0.0246329 13.9833C0.0269131 14.2457 0.132162 14.4967 0.317712 14.6823C0.503261 14.8678 0.754265 14.9731 1.01666 14.9754C1.27906 14.9776 1.53185 14.8768 1.7206 14.6945L7.5 8.91908L13.2794 14.6985C13.3717 14.7941 13.4821 14.8703 13.6042 14.9228C13.7263 14.9752 13.8577 15.0028 13.9905 15.004C14.1234 15.0051 14.2552 14.9798 14.3782 14.9295C14.5012 14.8792 14.6129 14.8049 14.7069 14.7109C14.8008 14.6169 14.8752 14.5052 14.9255 14.3822C14.9758 14.2592 15.0011 14.1274 15 13.9945C14.9988 13.8617 14.9712 13.7303 14.9188 13.6082C14.8663 13.4861 14.7901 13.3757 14.6945 13.2834L8.91908 7.5L14.6985 1.7206C14.8861 1.53242 14.9913 1.2774 14.991 1.01164C14.9906 0.74589 14.8847 0.49117 14.6965 0.303519C14.5083 0.115868 14.2533 0.0106581 13.9875 0.0110334C13.7218 0.0114088 13.4671 0.117339 13.2794 0.305521L7.5 6.08492L1.7206 0.305521Z" fill="#171717"/>
</svg>
