<svg width="83" height="83" viewBox="0 0 83 83" fill="none" xmlns="http://www.w3.org/2000/svg">
<path d="M83 41.5C83 49.7079 80.5661 57.7315 76.006 64.5562C71.4459 71.3808 64.9645 76.7 57.3814 79.841C49.7982 82.982 41.454 83.8039 33.4038 82.2026C25.3536 80.6013 17.959 76.6488 12.1551 70.8449C6.35121 65.041 2.39872 57.6464 0.797429 49.5962C-0.803857 41.546 0.0179813 33.2018 3.15902 25.6186C6.30005 18.0355 11.6192 11.5541 18.4438 6.99401C25.2685 2.43393 33.2921 0 41.5 0C52.5024 0.0131792 63.0505 4.38972 70.8304 12.1696C78.6103 19.9495 82.9868 30.4976 83 41.5Z" fill="url(#paint0_linear_0_389)"/>
<path d="M58.0996 41.4999C58.1062 42.5651 57.7572 43.602 57.1078 44.4464C56.7468 44.8971 56.3616 45.328 55.9541 45.7371L55.7051 45.9778C50.8323 50.4885 45.2757 54.1989 39.242 56.9711C38.0211 57.5239 36.7291 57.9039 35.4033 58.0999H35.2373C34.3003 58.0966 33.3815 57.8404 32.578 57.3583C31.7746 56.8762 31.1161 56.1861 30.6723 55.3609C30.2393 54.1666 29.9076 52.938 29.6804 51.6882C29.2332 48.3109 29.0224 44.9065 29.0496 41.4999C28.9881 37.9701 29.2227 34.4413 29.751 30.9506C29.942 29.955 30.19 28.9713 30.4938 28.0041C30.9628 26.9427 31.7678 26.0649 32.7846 25.5058C33.5993 25.1051 34.4954 24.8978 35.4033 24.8999C36.5787 25.0664 37.7288 25.3786 38.827 25.8295C44.9994 28.6134 50.6841 32.3715 55.6636 36.9598C56.2404 37.5242 56.8588 38.2048 57.0248 38.3708C57.7263 39.2625 58.1051 40.3654 58.0996 41.4999Z" fill="white"/>
<defs>
<linearGradient id="paint0_linear_0_389" x1="0" y1="0" x2="91.192" y2="10.2717" gradientUnits="userSpaceOnUse">
<stop stop-color="#0D703C"/>
<stop offset="1" stop-color="#A2D255"/>
</linearGradient>
</defs>
</svg>
