<svg width="14" height="10" viewBox="0 0 14 10" fill="none" xmlns="http://www.w3.org/2000/svg">
<path d="M7.11585 9.15647C6.83532 8.99834 6.61451 8.75241 6.48741 8.45654C6.40425 8.18475 6.33648 7.90849 6.28441 7.62907C6.15173 6.73915 6.08828 5.84029 6.09464 4.94056V4.66603C6.08553 3.70727 6.14166 2.74901 6.26264 1.79787L6.35052 1.3748C6.38987 1.16596 6.45113 0.961853 6.5333 0.765863C6.65028 0.53573 6.82817 0.342103 7.0476 0.206072C7.26702 0.0700401 7.51957 -0.00318028 7.77774 -0.00561523L7.82285 -0.00561523C8.1839 0.0508188 8.53525 0.157627 8.86662 0.311686C10.4565 1.07116 11.9232 2.06528 13.2175 3.26073L13.5123 3.57181C13.5905 3.65373 13.6635 3.74049 13.7308 3.83156C13.9069 4.06965 14.0013 4.35826 13.9999 4.65436C14.0034 4.97353 13.9008 5.28482 13.7083 5.53939L13.4049 5.86602L13.3373 5.93601C11.9897 7.22061 10.4422 8.27756 8.7554 9.06548L8.56562 9.13858C8.32658 9.2312 8.07715 9.2944 7.82285 9.32679C7.57705 9.32652 7.3348 9.26816 7.11585 9.15647ZM1.27732e-05 4.66059C-0.00143693 4.34946 0.120567 4.05046 0.339271 3.82916C0.557974 3.60785 0.855525 3.4823 1.16667 3.48004L4.04443 3.73435C4.28536 3.74133 4.51408 3.84193 4.68202 4.0148C4.84997 4.18767 4.94392 4.41919 4.94392 4.6602C4.94392 4.9012 4.84997 5.13272 4.68202 5.30559C4.51408 5.47846 4.28536 5.57907 4.04443 5.58605L1.16667 5.84114C0.855525 5.83887 0.557974 5.71332 0.339271 5.49202C0.120567 5.27071 -0.00143693 4.97171 1.27732e-05 4.66059Z" fill="white"/>
</svg>
