<svg width="22" height="23" viewBox="0 0 22 23" fill="none" xmlns="http://www.w3.org/2000/svg">
<path d="M4.96811 7.27441H0.371094V21.9326H4.96811V7.27441Z" fill="white"/>
<path d="M17.4032 6.95679C17.2338 6.93561 17.0537 6.92502 16.8736 6.91443C14.2997 6.80851 12.8486 8.33365 12.3402 8.9903C12.2025 9.17035 12.1389 9.27627 12.1389 9.27627V7.31689H7.74316V21.9751H12.1389H12.3402C12.3402 20.4818 12.3402 18.999 12.3402 17.5056C12.3402 16.7007 12.3402 15.8958 12.3402 15.0908C12.3402 14.0953 12.266 13.0361 12.7639 12.1253C13.1876 11.3627 13.9502 10.9815 14.8081 10.9815C17.3503 10.9815 17.4032 13.2797 17.4032 13.4916C17.4032 13.5022 17.4032 13.5127 17.4032 13.5127V22.0387H22.0002V12.4748C22.0002 9.20213 20.3373 7.27453 17.4032 6.95679Z" fill="white"/>
<path d="M2.66923 5.37898C4.1434 5.37898 5.33847 4.18404 5.33847 2.71C5.33847 1.23596 4.1434 0.0410156 2.66923 0.0410156C1.19505 0.0410156 0 1.23596 0 2.71C0 4.18404 1.19505 5.37898 2.66923 5.37898Z" fill="white"/>
</svg>
