<svg width="55" height="55" viewBox="0 0 55 55" fill="none" xmlns="http://www.w3.org/2000/svg">
<g id="Group 26">
<g id="Ellipse 2" filter="url(#filter0_d_38_77)">
<circle cx="27.5" cy="25.5" r="17.5" fill="#E74242"/>
</g>
<path id="close" d="M22.3765 20.2444C22.3026 20.1679 22.2143 20.1069 22.1166 20.065C22.0189 20.023 21.9139 20.001 21.8076 20C21.7013 19.9991 21.5958 20.0194 21.4974 20.0596C21.3991 20.0998 21.3097 20.1593 21.2345 20.2344C21.1593 20.3096 21.0999 20.3989 21.0596 20.4973C21.0194 20.5957 20.9991 20.7011 21 20.8074C21.001 20.9136 21.023 21.0187 21.065 21.1163C21.107 21.214 21.168 21.3023 21.2444 21.3761L25.8679 25.9984L21.2444 30.6207C21.0986 30.7716 21.0179 30.9738 21.0197 31.1837C21.0215 31.3935 21.1057 31.5943 21.2542 31.7427C21.4026 31.8911 21.6034 31.9753 21.8133 31.9771C22.0232 31.9789 22.2255 31.8982 22.3765 31.7524L27 27.1334L31.6235 31.7556C31.6974 31.8321 31.7857 31.8931 31.8834 31.935C31.9811 31.977 32.0861 31.999 32.1924 32C32.2987 32.0009 32.4042 31.9806 32.5026 31.9404C32.6009 31.9002 32.6903 31.8407 32.7655 31.7656C32.8407 31.6904 32.9001 31.6011 32.9404 31.5027C32.9806 31.4043 33.0009 31.2989 33 31.1926C32.999 31.0864 32.977 30.9813 32.935 30.8837C32.893 30.786 32.832 30.6977 32.7556 30.6239L28.1353 25.9984L32.7588 21.3761C32.9089 21.2256 32.9931 21.0216 32.9928 20.8091C32.9925 20.5966 32.9077 20.3928 32.7572 20.2428C32.6066 20.0927 32.4026 20.0085 32.19 20.0088C31.9774 20.0091 31.7736 20.0938 31.6235 20.2444L27 24.8666L22.3765 20.2444Z" fill="white"/>
</g>
<defs>
<filter id="filter0_d_38_77" x="0" y="0" width="55" height="55" filterUnits="userSpaceOnUse" color-interpolation-filters="sRGB">
<feFlood flood-opacity="0" result="BackgroundImageFix"/>
<feColorMatrix in="SourceAlpha" type="matrix" values="0 0 0 0 0 0 0 0 0 0 0 0 0 0 0 0 0 0 127 0" result="hardAlpha"/>
<feOffset dy="2"/>
<feGaussianBlur stdDeviation="5"/>
<feComposite in2="hardAlpha" operator="out"/>
<feColorMatrix type="matrix" values="0 0 0 0 0 0 0 0 0 0 0 0 0 0 0 0 0 0 0.1 0"/>
<feBlend mode="normal" in2="BackgroundImageFix" result="effect1_dropShadow_38_77"/>
<feBlend mode="normal" in="SourceGraphic" in2="effect1_dropShadow_38_77" result="shape"/>
</filter>
</defs>
</svg>
