<svg width="25" height="23" viewBox="0 0 25 23" fill="none" xmlns="http://www.w3.org/2000/svg">
<path d="M0 19.274C2.69105 19.4267 5.04427 18.7924 7.33924 17.1125C5.02097 16.713 3.41333 15.644 2.53961 13.4355C3.21529 13.3415 3.80942 13.5177 4.5084 13.2358C2.22508 12.2255 0.745576 10.7101 0.687328 8.09037C1.4096 8.14911 1.95714 8.63076 2.81921 8.56028C0.722283 6.49271 0.0815471 4.23719 1.39795 1.50002C3.58807 4.03748 6.15099 5.76437 9.28473 6.57495C9.45947 6.62194 9.62255 6.66893 9.7973 6.70417C10.6011 6.89213 11.5564 7.29154 12.0457 7.23281C12.8844 7.12708 12.0457 6.15204 12.2554 4.8833C12.9194 0.93614 17.2297 -0.861229 20.4217 1.45303C21.3537 2.13439 22.0876 2.12264 23.0079 1.71148C23.4856 1.50002 23.9748 1.28857 24.5457 1.04187C24.4175 2.16963 23.5555 2.79225 22.8681 3.62632C23.6487 3.80253 24.2777 3.57933 25 3.34438C24.7554 4.15496 24.1496 4.61311 23.6021 5.05952C23.0312 5.51767 22.8099 5.99932 22.7866 6.75116C22.4371 18.1345 9.61091 26.9334 0.838778 19.9319C-0.0116411 19.2505 0.815471 19.9319 0 19.274Z" fill="white"/>
</svg>
