<svg width="25" height="23" viewBox="0 0 25 23" fill="none" xmlns="http://www.w3.org/2000/svg">
<path d="M0 18.886C2.69105 19.0387 5.04427 18.4044 7.33924 16.7247C5.02097 16.3253 3.41333 15.2564 2.53961 13.0481C3.21529 12.9541 3.80942 13.1303 4.5084 12.8484C2.22508 11.8382 0.745576 10.3229 0.687328 7.70343C1.4096 7.76217 1.95714 8.24377 2.81921 8.17329C0.722283 6.10592 0.0815471 3.85061 1.39795 1.11369C3.58807 3.65092 6.15099 5.37764 9.28473 6.18815C9.45947 6.23513 9.62255 6.28212 9.7973 6.31736C10.6011 6.5053 11.5564 6.90468 12.0457 6.84595C12.8844 6.74023 12.0457 5.76527 12.2554 4.49666C12.9194 0.549863 17.2297 -1.24734 20.4217 1.06671C21.3537 1.748 22.0876 1.73625 23.0079 1.32513C23.4856 1.11369 23.9748 0.902255 24.5457 0.65558C24.4175 1.78324 23.5555 2.4058 22.8681 3.23979C23.6487 3.41599 24.2777 3.19281 25 2.95788C24.7554 3.76838 24.1496 4.22649 23.6021 4.67286C23.0312 5.13097 22.8099 5.61257 22.7866 6.36434C22.4371 17.7466 9.61091 26.5447 0.838778 19.5438C-0.0116411 18.8625 0.815471 19.5438 0 18.886Z" fill="white"/>
</svg>
