<svg width="25" height="22" viewBox="0 0 25 22" fill="none" xmlns="http://www.w3.org/2000/svg">
<path d="M0 18.8468C2.69105 18.9995 5.04427 18.3651 7.33924 16.6852C5.02097 16.2858 3.41333 15.2168 2.53961 13.0082C3.21529 12.9143 3.80942 13.0905 4.5084 12.8085C2.22508 11.7983 0.745576 10.2828 0.687328 7.66313C1.4096 7.72187 1.95714 8.20351 2.81921 8.13303C0.722283 6.06547 0.0815471 3.80994 1.39795 1.07277C3.58807 3.61024 6.15099 5.33712 9.28473 6.1477C9.45947 6.19469 9.62255 6.24168 9.7973 6.27692C10.6011 6.46488 11.5564 6.8643 12.0457 6.80556C12.8844 6.69983 12.0457 5.72479 12.2554 4.45606C12.9194 0.508894 17.2297 -1.28848 20.4217 1.02578C21.3537 1.70714 22.0876 1.69539 23.0079 1.28423C23.4856 1.07277 23.9748 0.861319 24.5457 0.614622C24.4175 1.74238 23.5555 2.365 22.8681 3.19907C23.6487 3.37529 24.2777 3.15208 25 2.91713C24.7554 3.72771 24.1496 4.18587 23.6021 4.63227C23.0312 5.09042 22.8099 5.57207 22.7866 6.32391C22.4371 17.7073 9.61091 26.5061 0.838778 19.5046C-0.0116411 18.8233 0.815471 19.5046 0 18.8468Z" fill="white"/>
</svg>
