<svg width="23" height="23" viewBox="0 0 23 23" fill="none" xmlns="http://www.w3.org/2000/svg">
<path d="M21.2517 6.36994C20.6926 5.13481 19.8902 4.02589 18.8713 3.07024C17.8525 2.12361 16.6713 1.37532 15.3549 0.852416C13.9935 0.311482 12.5508 0.0410156 11.0631 0.0410156C9.57543 0.0410156 8.1328 0.311482 6.77132 0.852416C5.45493 1.37532 4.27378 2.11459 3.25493 3.07024C2.23607 4.02589 1.43362 5.13481 0.874608 6.36994C0.297559 7.65015 0 9.02051 0 10.4269C0 12.8882 0.919663 15.2503 2.60573 17.1255L1.70409 22.039L6.50083 19.9023C7.93443 20.5153 9.4582 20.8219 11.0541 20.8219C12.5418 20.8219 13.9844 20.5514 15.3459 20.0105C16.6623 19.4876 17.8435 18.7483 18.8623 17.7926C19.8812 16.837 20.6836 15.7281 21.2426 14.493C21.8197 13.2127 22.1172 11.8424 22.1172 10.436C22.1263 9.02051 21.8287 7.65916 21.2517 6.36994Z" fill="white"/>
<path d="M15.5535 12.4995C15.0846 12.2651 14.742 12.1208 14.4986 12.0307C14.3453 11.9766 13.9846 11.8143 13.8584 11.9135C13.4617 12.238 13.0379 13.1576 12.5871 13.3289C11.469 13.1125 10.4322 12.3462 9.62068 11.5619C9.26003 11.2193 8.59281 10.2456 8.44855 9.98415C8.4215 9.71368 8.90837 9.35306 9.01657 9.1457C9.57558 8.51461 9.15183 8.11793 9.0797 7.85648C8.95347 7.58601 8.73708 7.09917 8.54774 6.70248C8.38544 6.44103 8.34934 6.05336 8.06082 5.90912C6.83459 5.27803 6.13135 6.5402 5.84282 7.19834C4.10266 11.3906 14.5617 19.3693 16.6895 13.8699C16.7977 13.392 16.7526 13.2117 16.5903 12.9953C16.2657 12.77 15.8871 12.6708 15.5535 12.4995Z" fill="#17773D"/>
</svg>
