<svg width="23" height="22" viewBox="0 0 23 22" fill="none" xmlns="http://www.w3.org/2000/svg">
<path d="M21.2517 6.32951C20.6926 5.09426 19.8902 3.98525 18.8713 3.02951C17.8525 2.08279 16.6713 1.33443 15.3549 0.811475C13.9935 0.270492 12.5508 0 11.0631 0C9.57543 0 8.1328 0.270492 6.77132 0.811475C5.45493 1.33443 4.27378 2.07377 3.25493 3.02951C2.23607 3.98525 1.43362 5.09426 0.874608 6.32951C0.297559 7.60984 0 8.98033 0 10.3869C0 12.8484 0.919663 15.2107 2.60573 17.0861L1.70409 22L6.50083 19.8631C7.93443 20.4762 9.4582 20.7828 11.0541 20.7828C12.5418 20.7828 13.9844 20.5123 15.3459 19.9713C16.6623 19.4484 17.8435 18.709 18.8623 17.7533C19.8812 16.7975 20.6836 15.6885 21.2426 14.4533C21.8197 13.1729 22.1172 11.8025 22.1172 10.3959C22.1263 8.98033 21.8287 7.61885 21.2517 6.32951Z" fill="white"/>
<path d="M15.5535 12.4601C15.0846 12.2257 14.742 12.0814 14.4986 11.9912C14.3453 11.9371 13.9846 11.7748 13.8584 11.874C13.4617 12.1986 13.0379 13.1183 12.5871 13.2896C11.469 13.0732 10.4322 12.3068 9.62068 11.5224C9.26003 11.1797 8.59281 10.206 8.44855 9.9445C8.4215 9.67401 8.90837 9.31335 9.01657 9.10598C9.57558 8.47483 9.15183 8.07811 9.0797 7.81663C8.95347 7.54614 8.73708 7.05926 8.54774 6.66254C8.38544 6.40106 8.34934 6.01335 8.06082 5.86909C6.83459 5.23794 6.13135 6.50024 5.84282 7.15844C4.10266 11.3511 14.5617 19.3306 16.6895 13.8306C16.7977 13.3527 16.7526 13.1724 16.5903 12.956C16.2657 12.7306 15.8871 12.6314 15.5535 12.4601Z" fill="#17773D"/>
</svg>
