<svg width="23" height="22" viewBox="0 0 23 22" fill="none" xmlns="http://www.w3.org/2000/svg">
<path d="M21.2517 6.32951C20.6926 5.09426 19.8902 3.98525 18.8713 3.02951C17.8525 2.08279 16.6713 1.33443 15.3549 0.811475C13.9935 0.270492 12.5508 0 11.0631 0C9.57543 0 8.1328 0.270492 6.77132 0.811475C5.45493 1.33443 4.27378 2.07377 3.25493 3.02951C2.23607 3.98525 1.43362 5.09426 0.874608 6.32951C0.297559 7.60984 0 8.98033 0 10.3869C0 12.8484 0.919663 15.2107 2.60573 17.0861L1.70409 22L6.50083 19.8631C7.93443 20.4762 9.4582 20.7828 11.0541 20.7828C12.5418 20.7828 13.9844 20.5123 15.3459 19.9713C16.6623 19.4484 17.8435 18.709 18.8623 17.7533C19.8812 16.7975 20.6836 15.6885 21.2426 14.4533C21.8197 13.1729 22.1172 11.8025 22.1172 10.3959C22.1263 8.98033 21.8287 7.61885 21.2517 6.32951Z" fill="white"/>
<path d="M15.5533 12.4601C15.0845 12.2257 14.7419 12.0814 14.4984 11.9912C14.3452 11.9371 13.9845 11.7748 13.8583 11.874C13.4615 12.1986 13.0378 13.1183 12.5869 13.2896C11.4689 13.0732 10.432 12.3068 9.62056 11.5224C9.2599 11.1797 8.59269 10.206 8.44843 9.9445C8.42138 9.67401 8.90825 9.31335 9.01644 9.10598C9.57546 8.47483 9.15171 8.07811 9.07958 7.81663C8.95335 7.54614 8.73696 7.05926 8.54762 6.66254C8.38532 6.40106 8.34922 6.01335 8.0607 5.86909C6.83447 5.23794 6.13122 6.50024 5.8427 7.15844C4.10254 11.3511 14.5615 19.3306 16.6894 13.8306C16.7976 13.3527 16.7525 13.1724 16.5902 12.956C16.2656 12.7306 15.8869 12.6314 15.5533 12.4601Z" fill="#17773D"/>
</svg>
